/* XPM */
static char *_325d96335264f57e53392d55b5cfad9FwwNuunEnSaeFKDA[] = {
/* columns rows colors chars-per-pixel */
"64 64 256 2 ",
"   c black",
".  c #000056",
"X  c #440001",
"o  c #CF0034",
"O  c #0501B4",
"+  c #C10103",
"@  c #CC0103",
"#  c #E1011E",
"$  c #9E0200",
"%  c #E10202",
"&  c #7C0303",
"*  c #D30304",
"=  c #DB0541",
"-  c #330827",
";  c #000A45",
":  c #4D0A80",
">  c #7A0E1E",
",  c #C70F09",
"<  c #A21120",
"1  c #DD111C",
"2  c #C51215",
"3  c #78153C",
"4  c #1619AB",
"5  c #E01F1E",
"6  c #4B2004",
"7  c #C52016",
"8  c #C72132",
"9  c #D52216",
"0  c #E12204",
"q  c #E2232E",
"w  c #E3235E",
"e  c #02251E",
"r  c #412838",
"t  c #8B2E20",
"y  c #E52E38",
"u  c #9F2F3A",
"i  c #E33019",
"p  c #BA3102",
"a  c #7A3345",
"s  c #A03305",
"d  c #3F341A",
"f  c #313564",
"g  c #C63936",
"h  c #D13901",
"j  c #503A9F",
"k  c #A43A55",
"l  c #033BD5",
"z  c #6F3B81",
"x  c #A23B1F",
"c  c #E23B03",
"v  c #E53B47",
"b  c #C53C1C",
"n  c #473D92",
"m  c #003E5A",
"M  c #DD3E58",
"N  c #E33E20",
"B  c #524067",
"V  c #78414C",
"C  c #E74176",
"Z  c #E64B6A",
"A  c #C74D07",
"S  c #EB4D00",
"D  c #494F94",
"F  c #9D4F55",
"G  c #EB4F7D",
"H  c #EE5084",
"J  c #A75133",
"K  c #E55116",
"L  c #BC522C",
"P  c #055459",
"I  c #775433",
"U  c #A55511",
"Y  c #D3552F",
"T  c #7D5653",
"R  c #4F5762",
"E  c #E6572B",
"W  c #E75760",
"Q  c #EE598E",
"!  c #045BE1",
"~  c #665B76",
"^  c #A15C75",
"/  c #B95C5E",
"(  c #8F5E7D",
")  c #285FDC",
"_  c #3D61D3",
"`  c #BB6245",
"'  c #ED62A0",
"]  c #CC630C",
"[  c #D1645D",
"{  c #D26541",
"}  c #CA666F",
"|  c #E4673E",
" . c #EA6730",
".. c #CB6886",
"X. c #E86808",
"o. c #E96975",
"O. c #506AD9",
"+. c #676A9A",
"@. c #8E6B91",
"#. c #B96B82",
"$. c #EE6BA9",
"%. c #F26C90",
"&. c #EA6F5F",
"*. c #AD7089",
"=. c #E87345",
"-. c #6374D6",
";. c #8A7475",
":. c #EE74AF",
">. c #91755B",
",. c #02766F",
"<. c #2D7773",
"1. c #7178D1",
"2. c #3379AB",
"3. c #077AF1",
"4. c #A27B73",
"5. c #EF7BB4",
"6. c #CB7C20",
"7. c #EA7F4D",
"8. c #EE80BC",
"9. c #FF80FF",
"0. c #8A8199",
"q. c #818286",
"w. c #EA8272",
"e. c #C5838A",
"r. c #C78375",
"t. c #D88353",
"y. c #DE8305",
"u. c #2084E5",
"i. c #9384BC",
"p. c #EB848A",
"a. c #4785E7",
"s. c #B88666",
"d. c #EC865E",
"f. c #C78894",
"g. c #F088C7",
"h. c #5A8AE4",
"j. c #A48A95",
"k. c #ED8B53",
"l. c #7F8DD1",
"z. c #008E80",
"x. c #BA8EA5",
"c. c #AB8FA8",
"v. c #1F9084",
"b. c #9993AE",
"n. c #ED935B",
"m. c #ED9505",
"M. c #DF968E",
"N. c #F297D3",
"B. c #EF992A",
"V. c #8E9AD9",
"C. c #C59B78",
"Z. c #F09B8C",
"A. c #9A9DBE",
"S. c #A69D7C",
"D. c #B89DA6",
"F. c #E99DA2",
"G. c #ED9D73",
"H. c #F19D5F",
"J. c #A59FAD",
"K. c #CB9F89",
"L. c #B7A0BB",
"P. c #D4A0C5",
"I. c #EAA042",
"U. c #CAA29E",
"Y. c #27A393",
"T. c #7AA4DC",
"R. c #F3A4DC",
"E. c #86A583",
"W. c #0DA893",
"Q. c #F4ABE4",
"!. c #F9AB02",
"~. c #70ACF8",
"^. c #81ACA2",
"/. c #C9ACAD",
"(. c #E4AC57",
"). c #F0ADAE",
"_. c #EEAE47",
"`. c #B3AFAF",
"'. c #DBAFAB",
"]. c #B8B17C",
"[. c #D5B173",
"{. c #54B2F1",
"}. c #B1B2BF",
"|. c #ECB2C0",
" X c #F3B25F",
".X c #F3B270",
"XX c #D5B3CC",
"oX c #F0B37E",
"OX c #9BB4DF",
"+X c #D3B4BC",
"@X c #C9B591",
"#X c #C1B7C4",
"$X c #F2B7E5",
"%X c #B2BAE2",
"&X c #C3BA9E",
"*X c #DDBA92",
"=X c #EFBA16",
"-X c #DABBD5",
";X c #F4BE91",
":X c #E3BFAA",
">X c #EDC0C5",
",X c #F4C02A",
"<X c #F8C147",
"1X c #F0C2AD",
"2X c #C2C4E1",
"3X c #00C5FA",
"4X c #F5C601",
"5X c #D3C7C6",
"6X c #ECC9E0",
"7X c #F4C97E",
"8X c #F4C9ED",
"9X c #F6C964",
"0X c #E0CA77",
"qX c #D9CB94",
"wX c #D7CFD8",
"eX c #EED0BF",
"rX c #EED1D1",
"tX c #E8D2AA",
"yX c #EFD4E1",
"uX c #F2D4EF",
"iX c #F7D497",
"pX c #D3D6F4",
"aX c #EFD659",
"sX c #F7D6AB",
"dX c #F4D884",
"fX c #F6D879",
"gX c #F7D88B",
"hX c #F4D969",
"jX c #E0DBDA",
"kX c #F3DC44",
"lX c #F4DCF2",
"zX c #F7DC18",
"xX c #F4DDD9",
"cX c #F4DEE8",
"vX c #F9DE01",
"bX c #F7DF25",
"nX c #F3E0C3",
"mX c #E1E1EA",
"MX c #F9E692",
"NX c #EBE8ED",
"BX c #F9E9AD",
"VX c #F6ECEB",
"CX c #FAEFC1",
"ZX c #FAF0CB",
"AX c #FAF1D7",
"SX c #FBF2FA",
"DX c #F4F3F2",
"FX c #E7F5FC",
"GX c #FEF604",
"HX c #F5FAFC",
"JX c #FDFBEA",
"KX c #FDFBF3",
"LX c #BDFFFF",
"PX c #FFFFD9",
"IX c white",
"UX c None",
/* pixels */
"UXUXUXUXUXUXUXUXUXUXUXUXUXUXUXUXUXUXUXxXKX).p.IXIXUXUXUXUXUXUXUXUXUXUXUXUXUXUXUXUXUXUXUXUXUXUXUXUXUXUXUXUXUXUXUXUXUXUXUXUXUXUXUX",
"UXUXUXUXUXUXUXUXUXUXUXUXUXUXUXUXUXUXHXIX>X% p.mXVXKXIXUXUXHXIXsX;XrXSXIXIXUXUXIXIXxXF.o.o.o.|.IXUXUXUXUXUXUXUXUXUXUXUXUXUXUXUXUX",
"UXUXUXUXUXUXUXUXUXUXUXUXUXUXUXUXUXUXDXIXrX% >XNX# yXIXUXIXIXsX X.X<X@XpXIXIXIXIX).q % q 5 q % p.IXUXUXUXUXUXUXUXUXUXUXUXUXUXUXUX",
"UXUXUXUXKXIXIXUXUXUXUXUXUXUXUXUXUXUXIXIXVXF.>X).% >XHXUXJXPX9XI.=X4X@XHXIXlXSXo.% y v y y v M % >XIXUXUXUXUXUXUXUXUXUXUXUXUXUXUX",
"UXUXUXUXKXDXJXIXUXUXUXUXUXUXUXUXUXIXDXVXcX>XM.[ o w.VXIXJXMX9Xw.sXAXHXDXDXrXW % v y y y 1 % 5 % r.IXUXUXUXUXUXUXUXUXUXUXUXUXUXUX",
"UXUXUXIXKXtXNXIXUXUXUXUXUXUXUXUXIXIXyX6XrX>X>XjXmXjXHXKXBXfXdXtXNXHXHXrXF.W # v q y 5 # r.:X/.a / IXUXUXUXUXUXUXUXUXUXUXUXUXUXUX",
"UXUXUXUXIXKXIXIXUXUXUXUXUXUXUXIXSXcXHXVXcX>X|.cXDXUXIXIXfXhXCXnX'.mXHX+X9 1 y q v % } rXAXZXPXD.T IXUXUXUXUXUXUXUXUXUXUXUXUXUXUX",
"UXUXUXUXUXUXIXIXDXUXUXUXUXUXUXIX>XrXDXHXVXcX|.F.IXIXAXPXhXMXAXDXiX} A.x.y % q y 1 F nXAXCXCXZX*Xj.IXUXUXUXUXUXUXUXUXUXUXUXIXUXUX",
"UXUXUXUXIXUXKXKXIXUXUXUXUXIXIXcX:.1XrXcXcXlXyXp.F.IXVX7XhXBXZXDXZX_.#.J.[ % q y & q.ZXZXnXZXsX[.eXIXUXUXUXUXUXUXUXUXUXUXUXDXUXUX",
"UXUXUXIXJXIXIXUXUXUXUXUXIXVX|.).*X1XrX|.).).>XZ.).DXBXaXMXCXAXAXCXfXr.l.f.% 5 t   S.BXqX*XBXqXj.VXUXUXUXUXUXUXUXUXUXIXFXOX~.~.2X",
"UXUXIXIXAXKXIXUXUXUXUXUXIX>XW '.0.j.).Z.Z.F.W c >XNX1XfXBXAXAXAXCXfX[.{.T.M $ e X *XsX&X'.sX:XB jXIXUXUXUXUXUXUXUXUXIXHXh.a.OX#X",
"UXUXUXAXnXAXUXUXUXUXUXUXUXIXxXnX#X5XiXC.].w.= o.AXxXZ.iXBXAXAXAXBXMX<X}.3X( > m T *XtXT b.ZXsX5XeXKXUXUXUXUXUXUXUXIXIXDXOXh.%XUX",
"UXUXUXIXIXIXUXUXUXUXUXUXIXIXVXeXZXAXnX+.@.p.o.p.yX|._.BXZXCXAXAXBXMXaX&X{.2.C.*X4.*XCXj.`.ZXCXZXsXKXUXUXUXUXUXUXUXDXIX2X) V.V.-X",
"UXUXUXUXUXIXAXIXIXUXUXUXIXHXmXxXoX:XZXrX/.Z.p.%.Z.n.fXCXZXCXAXAXBXfXfX_.OXu.U.BX*XoXBXeXeXZXtX*XoXrXHXNXIXJXKXIXUXUXIXNX5X5X5XUX",
"UXUXUXUXIXIXAXJXIXIXUXUXIXSXwXrX).w.;X;Xw.M o.p.G.;XnXnXnXnXnXZXBXgXdX<X+X{.+.eXnXd.d.oXsXiXG.=.'.DXj.x.rX;.OX%XwXNXUXIXIXIXUXUX",
"UXUXJXKXAXAXJXtXIXIXUXIXIXFXXX'.rXrXF.'.xXrXo.%.rXnX5X-X'.+X+X/./.'.'.7X0XT.D A &.:X).w.w.d.p.:XDXwXV > t t V : S.hXeXIXIXIXIXUX",
"UXUXIXJXDXAXtXAXKXUXUXIXIXSXwXnXxX>X@ '.DXFXVX>X|.|./.+X+XXX6X6X6XyX-X'._.D.#Xr.u +XDXuXx.+X`.5X#XY.z.T & $ p h y.=XU 5XIXKXIXUX",
"IXJXJXDXCX*XrXIXDXUXUXJXHXrX=.w.'.e.* } jXmXrXF.f.U.>XuXlXlXlXlXlXlXlX8X6XF.U.K.q.z.J.^.z.z.E.bXE.z.v.P @.j.V t > - q.mXIXIXIXUX",
"IXIXAXJXtXmXIXIXIXUXUX;XXX:X0 y y q % / 5XnXoXH.).yXlXlXlXlXlXlXlXlXlX8X8X8X-Xf.;.,.,.z.Y.Y.Y.].E.z.R 0.NXDXIXDXDXIXIXUXIXIXKXJX",
"UXHXnX*XtXHXUXUXUXUXIXIX#Xe.h g # y 5 + { 7XdX>XuXlXlXlXlXlXuXuXlXuXuX8X8X8X8X8Xj.r P <.Y.Y.Y.W.v.z.}.IXHXIXIXIXHXIXUXUXIXJXnXwX",
"UXIXIXDXIXIXIXIXIXKXKXZXD.^ b k g u + 7 t.;XrX8XlXlXlXlXlXlXuXlXlXlXlX8X8X8X$X$X6Xx.> P ,.,.,.z.v.v.v.@XAXAXJXHXHXIXUXUXIXAX5XDX",
"UXIXIXIXIXHXKXAX:XoX X_.H.w.| | #.x.f.r.Z.|.8X8XuXuXlXlXuXyXcXlXlX8XwXuX8X8X$X$X$XR...R q.b.b.0.<.z.v.,.t.9XiXsXCXIXIXUXIXSXDXIX",
"UXUXUXUXUXIXoXm._.9XdXMXMXfX;XrXcXlXlXlXuX8X8X8XuXuXlXuX0.q.wXlXlXXXB J.yX$X$X$XR.N.N.yXNXlXlXyX-Xq.z.v.v.C.fX9X9X_.nXIXUXUXmXmX",
"UXUXUXUXIX1X XZXAXAXCXBXBXBX6XlXuXuXlXlX8X$X8X8X8XlXlXL.#X#XL.SX6XJ.5X`.P.8X$X$XR.N.N.$XlXuXuX8X8X-X~ R f r.iXiX7X X] cXIXmXxXtX",
"UXUXUXUXAXZ. XBXZXAXAXCXCXsX$X8X8X8X8XuX8X$X8X8X8XuXcXL.wXjXc.uX$Xx.NX#XD.8X$XQ.N.N.g.N.8X8X8X$XR.N.x.h.3.a.h.h.h.h.O.a.~.~.3.0.",
"UXUXUXUXJXn. . X9XfXMXMXMXiXN.$X$X$X8X8X$X$X8X8X8X8XuXj.q.0.j.uX-Xq.J.q.c.8XQ.R.N.N.g.g.Q.$XQ.N.g.8.V.OXJ.b.b.b.A.A.A.A.b.b.A._ ",
"UXUXIXIXIX|.X.d..X9XhXfXfXoX:.g.N.Q.$X$X$X$X$X8X8X8XyX0.; . D.uX$X@.. ; P.$XR.R.N.g.g.5.g.R.g.g.:.%.O.K.!.!.!.!.!.!.!.!.!.!.!.i.",
"UXIXIXwX6XDX}.s d.G.9XfXfX XH $.g.g.g.N.Q.$X$X$X$X$X6Xc.O 4 D.uX6X0.O n U.$XN.N.g.g.g.:.:.g.8.' Q %.1.K.!.[.i.i.i.i.i.i.b.B.!.i.",
"UXNX-X8XgXcXwXB s d..X9XhXhXH.' ' :.g.R.|.Q.$X$X$X$X8Xc.; f #X8X$Xj.. R XXQ.N.g.g.g.g.:.' $.' ' Q ..) K.!.G.x.c.c.c.c.c.U.B.!.i.",
"IX5X1XiXkXdX5X^ s x 7..X9XhX Xw.Q ' 8.N.N.R.$X$X$X$X8X-Xe ( $XQ.$XP.X @.Q.N.g.g.g.g.:.' Q Q Q ' G T ! K.m.I.(._.(.[.(.(._.B.!.i.",
"NX-XsXvXkXCX}.^ s s J n. X9XhX XW H 8.N.N.N.N.R.g.$.$.N.-XP.Q.R.R.R.P.8.' Q ' 5.8.:.$.' Q H Q } r t O.K.!.K.a.h.1.l.1.O.i.,X!.i.",
"#XwXnXvXfXmX}.^ s x t Y H. X X9X X&.$.g.g.N.N.N.Q = w :.R.P.j.x.x.j.P.g.H = w $.:.$.' Q Q G Z | L u _ C._.(.,X(.x.b.U.<X,X!.4Xb.",
"NXuXsXnXnXjXU.p b s s x =.1X5X@X9XH.Q g.g.g.g.N.N.g.g.N.N.#.X 8 > d x.N.8.:.:.:.$.' ' H H Z k..Xt.s n -.1.-.K.A.l.A.O.c.(..X.Xl.",
"IXIXlXDXNX2X{ A x s t & [ cXIX5X;.M.p.$.8.g.g.g.g.N.N.g.g.:.M C q C g.g.5.5.$.' ' ' Q H H W H..X=.F O.V.aXU._ -.kX4X@X_ -.1.h.! ",
"IXIXmXNX>X[ K Y A s x & / VXHX#Xz ` w.' :.:.8.8.g.g.g.g.g.g.$.C Q 8.:.:.:.' ' ' Q Q Q H H W H.G.7.V.V.aXvX4XaXkXvXzX,XaXaXaXkX@X",
"HXIX).H.B.X.E ] A p s V U.VXVXJ.V k.d.Q $.$.$.5.5.5.8.8.8.5.5.5.5.:.$.$.$.' ' Q Q Q H H H &.G.n.e.h.fXvXvXvXvXvXzXzXvXvXvXGXvX@X",
"UXIXIXn.X.B.S X.A p < *.M.W #.^ [ k.d.H ' $.$.$.:.$.$.:.:.$.$.$.' ' ' $.' Q Q Q H H H H H &.n.B.} O.0XGXqX1.-.D.bXvXkX1.1.1.1.O.",
"UXUXIXIX:Xm.K  .p ] ] # % @ @ + Y k.d.H Q ' ' ' ' ' ' ' ' ' ' ' ' ' ' ' ' Q Q Q H H H H Z 7.7.| X.: A.`.O.`.@XfXGXGXkXqX@XqXqX1.",
"UXUXUXIXnX] [ h y.zXvX* 5 # @ + $ L H.o.C H Q Q ' ' ' ' ' Q Q Q Q Q Q Q Q Q Q H H o.G C &.n.7.E E s.) l.aXGXGXGXGXGXGXGXGXGXGXA.",
"UXUXUXUXoXx.NX5XdXvXbXy.m.m.X.] p t d.G.G H H Q Q Q Q Q Q Q Q Q Q Q Q Q Q Q H H H G H C d..Xn.K t.2Xh.A.`.A.A.*XGXGXkXA.A.A.A.) ",
"UXUXUXJXoXwXDXZXbXkXzX=XbXGXzX4Xy.b V ^ o.Q H H H Q Q Q Q Q Q Q Q Q Q Q Q H H H H G C &. X.Xd.X.'.~.%X}.A.A.A.*XGXGXkXA.A.A.A.`.",
"UXUXUXsXK.FX#X,XzXkXzX=XbXbXbXzXm.] a R k H H H H H H H Q Q Q Q Q Q Q H H o.G H G G M H.hX7Xd.S / O.hXGXGXGXGXGXGXGXGXGXGXGXGXGX",
"UXUXLXnX#XmX+XbXbXkXkX!.4XvXvXvXm.A a ~ a M H H H H H H H H Q Q Q H H H H o.G G G C v  XhX9Xd.y c j b./.&X&X&X&X&X&X&X&X&X&X&X&X",
"UXUXAXBXHXNX#X[.zXaXvX[.rX5Xi.x.*.F j.b.3 5 M H H H H H H H H H H H H H H G G G C 8 ,  XhX Xg % y p 4 O 4 4 O O 4 O O O O O O O ",
"UXUXAXIXHXmXj.` aXvX(.5X#XmXa.l l V.wX~ > y 5 M H H G G H H H H H H H G G C H C 8 9 * t.9Xt.* i i c h h h h A h @ h s 6   6 6 6 ",
"UXUXIXIXDXwX# ..5XC.mXDX4.%Xh.l -.mX2Xf u y y q 8 M G H H H H H H G G H G G C 8 * 5 @ 7.H.g % i i i N % =.oXgXgX.X=.@ g a - t U ",
"UXUXIXIXNX} i U.OX[.iXcX2Xh.! ) %XDXb.3 9 y y y q 2 v C G H Q H G H G C C 8 @ 1 q 5 @ | { , i i i N 0 G.MXMXMXMXMXgX7.@ E g a X ",
"UXIXIXNX+X% q F.tXvX=X X'.O.! T.HXwX( + 9 q y y q * + + 8 g M W W v 8 2 + + 1 q 1 % * 7 7 i i i N % G.BXMXMXMXMXdXgX7Xb b % } 5X",
"UXUXIXVXr.* % y.vX,X,X=Xy.: O.mXDXi.8 i 7 * 1 1 1 , 2 2 + , | n.H.| + 2 2 , @ 1 1 @ + , 7 i i N 0 E iXMXMXMXMXgXgXgXgX7.+ J wXIX",
"UXUXUXIXNXwX'.;XI.c B.m.( l l.DX2X^ @ 8 , @ , @ + , , + , | H..X.X X| + , , + @ + , + , i i i N % G.MXMXgXoXMXgX0X7XgXH.k 5XIXUX",
"UXUXUXUXUXIXIXIXrXc.b.-.! ! V.IX#X< 7 2 2 , , , , , , + Y k.7.7.H..Xn.N + , , , , , , 7 9 i N i N dXMXMX*XA.*XMXD.S.dXH.+XIXUXUX",
"UXUXIXIXUXUXUXIX%X3.u.3.u.! l.HXwXu 7 < & & , , 2 + 7 | =.|  .| 7.n.H.k.Y + + + + + + 7 0 i N % 7.MXMXdX@X2X@X9X5XU.dXH.+XIXUXUX",
"UXUXIXJXUXUXUXIXV.3.a.u.3.l -.FXmX^ + < $ & > 2 < a /  . . .E K S  .d.n.k.=.Y 7 7 { Y 7 2 7 5 0 7XMXMXMX;.f [.dX~ >.gX(.+XIXUXUX",
"KXIXDXJXKXDXIXVX%Xu.! 3.3.a.V.mXHXc.$ 7 < < < & u ~ T Y E K Y e.+Xw.c =.d.d.k.d.n.n..X XJ + % .XMXMXMXMXI   7XdXd >.gX.XeXUXUXUX",
"DXZXDXVXtXHXIXVXrXFXmXmXmXNX-X+XKXwX( @ 2 + 7 #.0.~ T Y K J #XHXIXKX'.N E 7.7.n..XH. X.Xt.@ | dXMXMXMXMXI T gXdXd C.gX;XNXUXUXUX",
"UXKXZXsXxXUXIXNX!.BXCXBXBX.XB.n.xXFXD.F g #.c.0.~ ~ F $ K.mXIXIXUXIXIXrX[ c  .=.k.d.d. X Xb =.gXMXoXdXMX[.@XMXgX[.dX7X.XNXUXUXUX",
"UXDX/.eXAXJXdXI.` 4X4X4XvXy.] y.r.DXNXx.0.J.0.D ~ F ` :XIXIXUXUXUXUXUXIXIX:XY c  .=.=.7.k.{ g 7X7Xo.o.7XMXMXMXMXMXgXo.Z.VXUXUXUX",
"UXIXHXIXIXBXvX=Xy.U B.B.bXY b 6.& j.NXP.0.0.~ F p 4.mXIXIXUXUXUXUXUXUXUXIXIXSXF.0 S  .E  .=.Y 7.fX.XoXgXgXMXgXgXgX7Xd.sXIXUXUXUX",
"UXUXIXKXDXCX4X,Xm.] s c m.A + x I r +.c.( T ` =.U.IXIXUXUXUXUXUXUXUXUXUXUXUXIXIXcXM.c S  .| | N |  X7XdXgXgX7X7X7X.X.X7XnXIXUXUX",
"UXUXIXDXIXJX,X=X!.y.t ^ ..#.@.+.D z k $ $ r.xXFXIXIXUXUXUXUXUXUXUXUXUXUXUXUXUXUXIXIXcXM.N S E  .c [ >X1X.X.X X.X.XoXMXMXiXJXUXUX",
"UXUXIXIXUXIXAXm.,Xy.J A.2XV.OXJ.^ L ` U.jXIXIXUXUXUXUXUXUXUXUXUXUXUXUXUXUXUXUXUXUXUXIXIXyX;X| K t.wXHXHXjXjXsX XdXMXBXMXdXAXHXUX",
"UXUXUXUXUXUXIXrXm.y.u wXIXVXJXKXmX5XjXIXIXUXUXUXUXUXUXUXUXUXUXUXUXUXUXUXUXUXUXUXUXUXUXUXIXIXjX5XIXUXUXUXUXUXKXxXdXMXMXBXMXnXDXUX",
"UXUXUXUXUXUXUXIXVX:X>XmXUXUXUXUXUXUXUXUXUXUXUXUXUXUXUXUXUXUXUXUXUXUXUXUXUXUXUXUXUXUXUXUXUXUXUXUXUXUXUXUXUXUXUXDXJX;XgXiX0XVXHXUX",
"UXUXUXUXUXUXUXUXIXSXDXUXUXUXUXUXUXUXUXUXUXUXUXUXUXUXUXUXUXUXUXUXUXUXUXUXUXUXUXUXUXUXUXUXUXUXUXUXUXUXUXUXUXUXUXUXIXDX5X5XwXHXUXUX"
};
