/* XPM */
static char *result[] = {
/* columns rows colors chars-per-pixel */
"20 300 256 2 ",
"   c black",
".  c #010101",
"X  c #020202",
"o  c gray1",
"O  c #040404",
"+  c gray2",
"@  c #060606",
"#  c #070707",
"$  c gray3",
"%  c #090909",
"&  c gray4",
"*  c #0B0B0B",
"=  c #0C0C0C",
"-  c gray5",
";  c #0E0E0E",
":  c gray6",
">  c #101010",
",  c #111111",
"<  c gray7",
"1  c #131313",
"2  c gray8",
"3  c #151515",
"4  c #161616",
"5  c gray9",
"6  c #181818",
"7  c #191919",
"8  c gray10",
"9  c #1B1B1B",
"0  c gray11",
"q  c #1D1D1D",
"w  c #1E1E1E",
"e  c gray12",
"r  c #202020",
"t  c gray13",
"y  c #222222",
"u  c #232323",
"i  c gray14",
"p  c #252525",
"a  c gray15",
"s  c #272727",
"d  c #282828",
"f  c gray16",
"g  c #2A2A2A",
"h  c gray17",
"j  c #2C2C2C",
"k  c #2D2D2D",
"l  c gray18",
"z  c #2F2F2F",
"x  c gray19",
"c  c #313131",
"v  c #323232",
"b  c gray20",
"n  c #343434",
"m  c #353535",
"M  c gray21",
"N  c #373737",
"B  c gray22",
"V  c #393939",
"C  c #3A3A3A",
"Z  c gray23",
"A  c #3C3C3C",
"S  c gray24",
"D  c #3E3E3E",
"F  c #3F3F3F",
"G  c gray25",
"H  c #414141",
"J  c gray26",
"K  c #434343",
"L  c #444444",
"P  c gray27",
"I  c #464646",
"U  c gray28",
"Y  c #484848",
"T  c #494949",
"R  c gray29",
"E  c #4B4B4B",
"W  c #4C4C4C",
"Q  c gray30",
"!  c #4E4E4E",
"~  c gray31",
"^  c #505050",
"/  c #515151",
"(  c gray32",
")  c #535353",
"_  c gray33",
"`  c #555555",
"'  c #565656",
"]  c gray34",
"[  c #585858",
"{  c gray35",
"}  c #5A5A5A",
"|  c #5B5B5B",
" . c gray36",
".. c #5D5D5D",
"X. c gray37",
"o. c #5F5F5F",
"O. c #606060",
"+. c gray38",
"@. c #626262",
"#. c gray39",
"$. c #646464",
"%. c #656565",
"&. c gray40",
"*. c #676767",
"=. c #686868",
"-. c DimGray",
";. c #6A6A6A",
":. c gray42",
">. c #6C6C6C",
",. c #6D6D6D",
"<. c gray43",
"1. c #6F6F6F",
"2. c gray44",
"3. c #717171",
"4. c #727272",
"5. c gray45",
"6. c #747474",
"7. c gray46",
"8. c #767676",
"9. c #777777",
"0. c gray47",
"q. c #797979",
"w. c gray48",
"e. c #7B7B7B",
"r. c #7C7C7C",
"t. c gray49",
"y. c #7E7E7E",
"u. c gray50",
"i. c #808080",
"p. c #818181",
"a. c gray51",
"s. c #838383",
"d. c #848484",
"f. c gray52",
"g. c #868686",
"h. c gray53",
"j. c #888888",
"k. c #898989",
"l. c gray54",
"z. c #8B8B8B",
"x. c gray55",
"c. c #8D8D8D",
"v. c #8E8E8E",
"b. c gray56",
"n. c #909090",
"m. c gray57",
"M. c #929292",
"N. c #939393",
"B. c gray58",
"V. c #959595",
"C. c gray59",
"Z. c #979797",
"A. c #989898",
"S. c gray60",
"D. c #9A9A9A",
"F. c #9B9B9B",
"G. c gray61",
"H. c #9D9D9D",
"J. c gray62",
"K. c #9F9F9F",
"L. c #A0A0A0",
"P. c gray63",
"I. c #A2A2A2",
"U. c gray64",
"Y. c #A4A4A4",
"T. c #A5A5A5",
"R. c gray65",
"E. c #A7A7A7",
"W. c gray66",
"Q. c #A9A9A9",
"!. c #AAAAAA",
"~. c gray67",
"^. c #ACACAC",
"/. c gray68",
"(. c #AEAEAE",
"). c #AFAFAF",
"_. c gray69",
"`. c #B1B1B1",
"'. c #B2B2B2",
"]. c gray70",
"[. c #B4B4B4",
"{. c gray71",
"}. c #B6B6B6",
"|. c #B7B7B7",
" X c gray72",
".X c #B9B9B9",
"XX c gray73",
"oX c #BBBBBB",
"OX c #BCBCBC",
"+X c gray74",
"@X c gray",
"#X c gray75",
"$X c #C0C0C0",
"%X c #C1C1C1",
"&X c gray76",
"*X c #C3C3C3",
"=X c gray77",
"-X c #C5C5C5",
";X c #C6C6C6",
":X c gray78",
">X c #C8C8C8",
",X c gray79",
"<X c #CACACA",
"1X c #CBCBCB",
"2X c gray80",
"3X c #CDCDCD",
"4X c #CECECE",
"5X c gray81",
"6X c #D0D0D0",
"7X c gray82",
"8X c #D2D2D2",
"9X c LightGray",
"0X c gray83",
"qX c #D5D5D5",
"wX c gray84",
"eX c #D7D7D7",
"rX c #D8D8D8",
"tX c gray85",
"yX c #DADADA",
"uX c gray86",
"iX c gainsboro",
"pX c #DDDDDD",
"aX c gray87",
"sX c #DFDFDF",
"dX c gray88",
"fX c #E1E1E1",
"gX c #E2E2E2",
"hX c gray89",
"jX c #E4E4E4",
"kX c gray90",
"lX c #E6E6E6",
"zX c #E7E7E7",
"xX c gray91",
"cX c #E9E9E9",
"vX c #EAEAEA",
"bX c gray92",
"nX c #ECECEC",
"mX c gray93",
"MX c #EEEEEE",
"NX c #EFEFEF",
"BX c gray94",
"VX c #F1F1F1",
"CX c gray95",
"ZX c #F3F3F3",
"AX c #F4F4F4",
"SX c gray96",
"DX c #F6F6F6",
"FX c gray97",
"GX c #F8F8F8",
"HX c #F9F9F9",
"JX c gray98",
"KX c #FBFBFB",
"LX c gray99",
"PX c #FDFDFD",
"IX c #FEFEFE",
"UX c white",
/* pixels */
"                                        ",
"                                        ",
"                                        ",
"                                        ",
"                                        ",
"                                        ",
"                                        ",
"                                        ",
"          X X                           ",
"        X     X                         ",
"      @   l d   O                       ",
"      1   } ~   -                       ",
"      7   >.X.  ,                       ",
"      q   r.:.  3                       ",
"      t   x.8.  6                       ",
"      u   Z.y.  8                       ",
"      p   L.f.  0                       ",
"      a   W.x.  w                       ",
"      s   ).M.  e                       ",
"      d   }.A.  t                       ",
"      d   OXH.  y                       ",
"      d   %XP.  u                       ",
"      s   ;XR.  p                       ",
"      s   <X~.  a                       ",
"      a   3X).  a                       ",
"    . a   7X[.  s                       ",
"    X p   qX X  d                       ",
"    o u   rXOX  d                       ",
"    O y   iX$X  d                       ",
"  . X d   sX=X  d                       ",
"    2     gX:X  d                       ",
"  8   z.9.aX3X  s                       ",
"* >   xXmXcX4X  a                       ",
"7    .JXIXUX1X  p                       ",
"r   z.UXLXUX5X  u                       ",
"i   R.UXKXUX9X  t                       ",
"p   oXUXKXUXeX  w X                     ",
"i   <XUXKXUXuX  8 O                     ",
"t   qXUXKXUXsX  3 @                     ",
"0   pXUXLXUXhX  - &                     ",
"2   jXUXLXUXzX    -                     ",
"$   cXUXLXUXbX    >                     ",
"  O mXUXPXUXNXt   1                     ",
"  y BXUXPXUXCXm   4                     ",
"  v CXUXPXUXDXI   7                     ",
"  A AXUXPXUXHX]   9                     ",
"  W GXUXIXUXLX$.  w                     ",
"  y.UXIXIXUXUX7.  r                     ",
"   XUXPXUXIXUXh.  y                     ",
"  eXUXPXUXIXUXF.  i                     ",
"  zXUXPXUXPXUX).  i                     ",
"d NXUXIXUXPXUXOX  i   .                 ",
"J AXUXIXUXPXUX-X  u   .                 ",
") GXUXIXUXPXUX4X  t   .                 ",
"@.LXUXIXUXPXUX0X  e   .                 ",
";.PXUXIXUXPXUXtX  0   .                 ",
"2.UXUXIXUXPXUXaX  6 . .                 ",
"6.UXUXIXUXPXUXhX  < X .                 ",
"9.UXUXIXUXPXUXzX  * o .                 ",
"w.UXUXIXUXPXUXvX  . O .                 ",
"r.UXUXIXUXPXUXmX%   @ .                 ",
"i.UXUXIXUXIXUXNXt   # .                 ",
"s.UXUXUXUXIXUXCXx   % .                 ",
"h.UXIXUXUXIXUXAXZ   =                   ",
"k.UXIXUXUXIXUXDXI   ;                   ",
"z.UXIXUXUXIXUXGX~   >                   ",
"v.UXIXUXUXIXUXJX`   <                   ",
"b.UXIXUXUXIXUXKX|   1                   ",
"n.UXIXUXUXIXUXLX+.  3                   ",
"n.UXIXUXUXUXUXPX&.  5                   ",
"M.UXIXUXUXUXUXUX>.  6                   ",
"m.UXIXUXUXUXUXUX4.  8                   ",
"n.UXIXUXUXUXUXUX9.  9                   ",
"n.UXIXUXUXUXIXUXt.  q                   ",
"b.UXIXUXUXUXIXUXp.  w                   ",
"x.UXIXUXUXUXIXUXg.  e                   ",
"k.UXIXUXUXUXIXUXl.  r                   ",
"h.UXIXUXUXUXIXUXc.  t                   ",
"s.UXUXIXUXUXIXUXm.  y                   ",
"y.UXUXIXUXUXPXUXV.  u                   ",
"q.UXUXIXUXUXPXUXS.  i                   ",
"4.UXUXIXUXUXPXUXG.  p                   ",
"-.PXUXIXUXUXPXUXP.  p                   ",
"O.KXUXIXUXUXPXUXY.  a                   ",
"_ HXUXIXUXUXPXUXQ.  s                   ",
"Y DXUXIXUXUXPXUX^.  s                   ",
"M CXUXIXUXUXPXUX).  s                   ",
"4 mXUXIXUXUXPXUX'.  d                   ",
"  xXUXPXUXUXPXUX{.  d                   ",
"  fXUXPXUXUXPXUX X  d                   ",
"  rXUXPXUXUXPXUXoX  d                   ",
"  5XUXPXUXUXPXUX#X  s                   ",
"  *XUXPXUXUXPXUX&X  s                   ",
"  }.UXPXUXUXPXUX;X  a                   ",
"  Q.UXPXUXUXPXUX<X  p                   ",
"  G.UXPXUXUXPXUX4X  i                   ",
"  m.UXIXUXUXPXUX7X  u                   ",
"  z.UXIXUXUXPXUX0X  g                   ",
"  c.UXIXUXUXPXUXyX    :                 ",
"  M.UXIXUXUXPXUXiX[ B.  ,               ",
"  Z.UXPXUXUXIXUXBXlXJX~   7             ",
"  G.UXPXUXUXUXUXUXUXUXU.  p             ",
"  P.UXPXUXUXUXUXUXLXUX>X  y . .         ",
"  R.UXPXUXUXUXUXUXPXUXfX  , + .         ",
"  ~.UXPXUXUXUXUXUXIXUXCXM   - .         ",
"  (.UXPXUXUXUXUXUXIXUXLX+.  3           ",
"  '.UXPXUXUXUXUXUXUXIXUXs.  w           ",
"  }.UXPXUXUXUXUXUXUXPXUXJ.  i           ",
"  .XUXPXUXUXUXUXUXUXPXUX'.  s           ",
"  +XUXPXUXUXUXUXUXUXPXUX=X  s           ",
"  %XUXPXUXUXUXUXUXUXPXUX8X  u           ",
"  =XUXPXUXUXUXUXUXUXPXUXaX  8           ",
"  >XUXPXUXUXUXUXUXUXIXUXxX  O %         ",
"  1XUXPXUXUXUXUXUXUXIXUXBXs   ,         ",
"  4XUXPXUXUXUXUXUXUXIXUXDXI   5         ",
"  7XUXPXUXUXUXUXUXUXIXUXKXo.  0         ",
"  9XUXPXUXUXUXUXUXUXUXUXUX3.  r         ",
"  qXUXPXUXUXUXUXUXUXUXUXUXp.  y         ",
"  rXUXPXUXUXUXUXUXUXUXIXUXm.  i         ",
"  uXUXPXUXUXUXUXUXUXUXIXUXJ.  p         ",
"  pXUXPXUXUXUXUXUXUXUXPXUX!.  p         ",
"  dXUXPXUXUXUXUXUXUXUXPXUX{.  p         ",
"  gXUXPXUXUXUXUXUXUXUXPXUX#X  i .       ",
"  jXUXPXUXUXUXUXUXUXUXPXUX:X  y X .     ",
"  lXUXPXUXUXUXUXUXUXUXPXUX5X  e o .     ",
"  xXUXPXUXUXUXUXUXUXUXPXUXeX  9 O .     ",
"  vXUXPXUXUXUXUXUXUXUXPXUXpX  4 @ .     ",
"X bXUXIXUXUXUXUXUXUXUXPXUXhX  ; # .     ",
"4 mXUXIXUXUXUXUXUXUXUXPXUXxX    % .     ",
"i NXUXIXUXUXUXUXUXUXUXPXUXmX6   = .     ",
"k BXUXIXUXUXUXUXUXUXUXIXUXVXx   - .     ",
"m CXUXIXUXUXUXUXUXUXUXIXUXSXH   > .     ",
"A ZXUXIXUXUXUXUXUXUXUXIXUXGX/   < .     ",
"J AXUXIXUXUXUXUXUXUXUXIXUXKXX.  3       ",
"U DXUXIXUXUXUXUXUXUXUXIXUXIX-.  5       ",
"W FXUXIXUXUXUXUXUXUXUXUXUXUX5.  8       ",
"^ GXUXIXUXUXUXUXUXUXUXUXUXUXr.  0       ",
"_ HXUXIXUXUXUXUXUXUXUXUXIXUXg.  w       ",
"[ HXUXIXUXUXUXUXUXUXUXUXIXUXb.  r       ",
" .JXUXIXUXUXUXUXUXUXUXUXPXUXZ.  y       ",
"o.KXUXIXUXUXUXUXUXUXUXUXPXUXJ.  i       ",
"#.LXUXIXUXUXUXUXUXUXUXUXPXUXT.  p   .   ",
"&.PXUXIXUXUXUXUXUXUXUXUXPXUX^.  a   1 . ",
"-.PXUXIXUXUXUXUXUXUXUXUXPXUX].  s       ",
">.IXUXIXUXUXUXUXUXUXUXUXPXUX.X  a   8.5 ",
"<.IXUXIXUXUXUXUXUXUXUXUXPXUX@X    Y jXY ",
"3.UXUXIXUXUXUXUXUXUXUXUXPXUX*X    w.IX$.",
"5.UXUXIXUXUXUXUXUXUXUXUXPXUX>X    V.UX7.",
"7.UXUXIXUXUXUXUXUXUXUXUXPXUX3X    !.UXu.",
"7.UXUXIXUXUXUXUXUXUXUXUXPXUX8X    XXUXg.",
"7.UXUXIXUXUXUXUXUXUXUXUXPXUXwX    -XUXl.",
"7.UXUXIXUXUXUXUXUXUXUXUXPXUXyX    6XUXx.",
"7.UXUXIXUXUXUXUXUXUXUXUXPXUXpX    rXUXx.",
"6.UXUXIXUXUXUXUXUXUXUXUXPXUXdX    aXUXl.",
"5.UXUXIXUXUXUXUXUXUXUXUXPXUXjX    jXUXh.",
"2.UXUXIXUXUXUXUXUXUXUXUXIXUXzX    cXUXs.",
"<.IXUXIXUXUXUXUXUXUXUXUXIXUXcX  2 mXUXy.",
";.PXUXIXUXUXUXUXUXUXUXUXIXUXnX  g VXUX7.",
"&.LXUXIXUXUXUXUXUXUXUXUXIXUXMX  n AXUX;.",
"+.KXUXIXUXUXUXUXUXUXUXUXIXUXBX$ S FXIX .",
" .JXUXIXUXUXUXUXUXUXUXUXIXUXCX7 P JXJXE ",
"' HXUXIXUXUXUXUXUXUXUXUXIXUXAXi W PXSXn ",
"^ GXUXIXUXUXUXUXUXUXUXUXIXUXDXk ( UXBX* ",
"T DXUXIXUXUXUXUXUXUXUXUXIXUXGXm [ UXbX  ",
"G AXUXIXUXUXUXUXUXUXUXUXIXUXHXZ  .UXlX  ",
"m CXUXIXUXUXUXUXUXUXUXUXIXUXJXJ +.UXgX  ",
"p NXUXIXUXUXUXUXUXUXUXUXIXUXLXY $.UXaX  ",
"- nXUXIXUXUXUXUXUXUXUXUXUXUXPXQ *.UXyX  ",
"  cXUXPXUXUXUXUXUXUXUXUXUXUXIX/ :.UXwX  ",
"  lXUXPXUXUXUXUXUXUXUXUXUXUXUX` <.UX8X  ",
"  gXUXPXUXUXUXUXUXUXUXUXUXUXUX{ 3.UX5X  ",
"  pXUXPXUXUXUXUXUXUXUXUXUXUXUX..6.UX2X  ",
"  rXUXPXUXUXUXUXUXUXUXUXUXUXUXO.9.UX,X  ",
"  8XUXPXUXUXUXUXUXUXUXUXUXUXUX$.w.UX;X  ",
"  3XUXPXUXUXUXUXUXUXUXUXUXUXUX*.r.UX&X  ",
"  ;XUXPXUXUXUXUXUXUXUXUXUXUXUX-.u.UX#X  ",
"  #XUXPXUXUXUXUXUXUXUXUXUXIXUX>.a.UXOX  ",
"  |.UXPXUXUXUXUXUXUXUXUXUXIXUX<.d.UX.X  ",
"  ).UXPXUXUXUXUXUXUXUXUXUXIXUX3.g.UX}.  ",
"  R.UXPXUXUXUXUXUXUXUXUXUXIXUX5.j.UX].  ",
"  F.UXPXUXUXUXUXUXUXUXUXUXIXUX6.l.UX_.  ",
"  n.UXIXUXUXUXUXUXUXUXUXUXIXUX8.z.UX(.  ",
"  f.UXIXUXUXUXUXUXUXUXUXUXIXUX0.c.UX^.  ",
"  0.UXUXUXUXUXUXUXUXUXUXUXIXUXq.b.UXQ.  ",
"  ;.IXUXUXUXUXUXUXUXUXUXUXIXUXw.n.UXE.  ",
"  | KXUXUXUXUXUXUXUXUXUXUXIXUXe.M.UXT.  ",
"  R FXUXIXUXUXUXUXUXUXUXUXIXUXr.B.UXU.  ",
"  n ZXUXIXUXUXUXUXUXUXUXUXIXUXt.V.UXL.  ",
"  & mXUXIXUXUXUXUXUXUXUXUXIXUXy.Z.UXH.  ",
"=   xXUXIXUXUXUXUXUXUXUXUXIXUXy.S.UXF.  ",
"7   fXUXPXUXUXUXUXUXUXUXUXIXUXy.F.UXA.  ",
"e   tXUXPXUXUXUXUXUXUXUXUXIXUXu.G.UXC.  ",
"u   8XUXPXUXUXUXUXUXUXUXUXIXUXu.J.UXN.  ",
"p   >XUXPXUXUXUXUXUXUXUXUXIXUXu.L.UXm.  ",
"p   +XUXPXUXUXUXUXUXUXUXUXIXUXu.P.UXb.  ",
"p   [.UXPXUXUXUXUXUXUXUXUXIXUXy.U.UXc.  ",
"i   W.UXPXUXUXUXUXUXUXUXUXIXUXt.T.UXl.  ",
"y   F.UXIXUXUXUXUXUXUXUXUXIXUXt.E.UXk.  ",
"r   v.UXIXUXUXUXUXUXUXUXUXIXUXr.Q.UXh.  ",
"w   u.UXUXIXUXUXUXUXUXUXUXIXUXw.~.UXf.  ",
"9   1.IXUXIXUXUXUXUXUXUXUXIXUXq./.UXs.  ",
"7   O.KXUXIXUXUXUXUXUXUXUXIXUX0._.UXa.  ",
"5   W FXUXIXUXUXUXUXUXUXUXIXUX9.`.UXu.  ",
"2   n CXUXIXUXUXUXUXUXUXUXIXUX7.].UXy.  ",
",   ; nXUXPXUXUXUXUXUXUXUXIXUX6.{.UXt.  ",
"; X   kXUXPXUXUXUXUXUXUXUXIXUX4.|.UXw.  ",
"& 1   aXUXPXUXUXUXUXUXUXUXIXUX2..XUX0.  ",
"@ 9   wXUXPXUXUXUXUXUXUXUXIXUX<.oXUX9.  ",
"o t   4XUXPXUXUXUXUXUXUXUXIXUX,.@XUX7.  ",
"  i   =XUXPXUXUXUXUXUXUXUXIXUX;.$XUX5.  ",
"  a   XXUXPXUXUXUXUXUXUXUXIXUX=.*XUX2.  ",
"  s   _.UXPXUXUXUXUXUXUXUXIXUX*.;XUX1.  ",
"  s   Y.UXPXUXUXUXUXUXUXUXUXUX%.,XUX<.  ",
"  a   A.UXPXUXUXUXUXUXUXUXUXUX#.2XUX:.  ",
"  i   c.UXIXUXUXUXUXUXUXUXUXUX+.6XUX-.  ",
"  t   i.UXIXUXUXUXUXUXUXUXUXUXO.9XUX=.  ",
"  w   4.UXUXUXUXUXUXUXUXUXUXUXX.wXUX&.  ",
"  8   %.PXUXUXUXUXUXUXUXUXUXUXX.tXUX%.  ",
"  4   ] JXUXUXUXUXUXUXUXUXUXUX..iXUX#.  ",
"  ,   I DXUXIXUXUXUXUXUXUXUXIX..dXUX+.  ",
"  -   m ZXUXIXUXUXUXUXUXUXUXIXo.jXUXO.  ",
"  $   w NXUXIXUXUXUXUXUXUXUXPX@.zXUXo.  ",
"  o     bXUXIXUXUXUXUXUXUXUXKX%.nXUXX.  ",
"    -   zXUXIXUXUXUXUXUXIXUXJX-.NXUX .  ",
"    3   jXUXPXUXUXUXUXUXIXUXHX1.ZXUX|   ",
".   8   dXUXPXUXUXUXUXUXIXUXFX8.FXIX{   ",
".   q   pXUXPXUXUXUXUXUXIXUXSXi.KXLX]   ",
".   e   yXUXPXUXUXUXUXUXIXUXZXl.UXKX_   ",
".   r   rXUXPXUXUXUXUXUXIXUXVXZ.UXHX(   ",
".   t   eXUXPXUXUXUXUXUXIXUXNXR.UXGX!   ",
".   y   wXUXPXUXUXUXUXUXIXUXmXXXUXDXR   ",
".   y   qXUXPXUXUXUXUXUXIXUXmX7XUXAXL   ",
".   y   0XUXPXUXUXUXUXUXUXUXGXCXUXZXS   ",
".   y   0XUXPXUXUXUXUXUXUXUXUXUXUXCXn   ",
".   y   0XUXPXUXUXUXUXUXUXUXUXPXUXBXg   ",
".   y   0XUXPXUXUXUXUXUXUXUXUXPXUXMX0   ",
".   y   qXUXPXUXUXUXUXUXUXUXUXPXUXbXo   ",
".   t   wXUXPXUXUXUXUXUXUXUXUXPXUXcX    ",
".   t   eXUXPXUXUXUXUXUXUXUXUXPXUXlX  . ",
".   r   rXUXPXUXUXUXUXUXUXUXUXPXUXhX  & ",
".   e   yXUXPXUXUXUXUXUXUXUXUXPXUXsX  < ",
".   w   iXUXPXUXUXUXUXUXUXUXUXPXUXyX  5 ",
".   9   sXUXPXUXUXUXUXUXUXUXUXPXUXwX  9 ",
"    -   zXUXIXUXUXUXUXUXUXUXUXPXUX8X  w ",
"  &   d VXUXIXUXUXUXUXUXUXUXUXPXUX2X  r ",
"  <   T FXUXIXUXUXUXUXUXUXUXUXPXUX-X  u ",
"  7   +.LXUXUXUXUXUXUXUXUXUXUXPXUX@X  i ",
"  e   8.UXUXUXUXUXUXUXUXUXUXUXPXUX}.  p ",
"  u   g.UXIXUXUXUXUXUXUXUXUXUXPXUX(.  a ",
"  p   B.UXIXUXUXUXUXUXUXUXUXUXPXUXY.  a ",
"  a   P.UXPXUXUXUXUXUXUXUXUXUXIXUXA.  p ",
"  s   ^.UXPXUXUXUXUXUXUXUXUXUXIXUXc.  i ",
"  s   {.UXPXUXUXUXUXUXUXUXUXUXUXUXu.  y ",
"  a   +XUXPXUXUXUXUXUXUXUXUXUXUXUX1.  e ",
"  i   *XUXPXUXUXUXUXUXUXUXUXUXUXKXX.  9 ",
". u   >XUXPXUXUXUXUXUXUXUXUXIXUXDXU   3 ",
"o t   3XUXPXUXUXUXUXUXUXUXUXIXUXBXs   ; ",
"O r   6XUXPXUXUXUXUXUXUXUXUXIXUXcX  X @ ",
"O w   7XUXPXUXUXUXUXUXUXUXUXPXUXdX  7   ",
"+ w   8XUXPXUXUXUXUXUXUXUXUXPXUXqX  y   ",
"O w   8XUXPXUXUXUXUXUXUXUXUXPXUX:X  a   ",
"O r   6XUXPXUXUXUXUXUXUXUXUXPXUX|.  s   ",
"o t   2XUXPXUXUXUXUXUXUXUXUXPXUXY.  i   ",
". u   ;XUXPXUXUXUXUXUXUXUXUXIXUXc.  r   ",
"  p   +XUXPXUXUXUXUXUXUXUXIXUXUX3.  7   ",
"  a   OXUXPXUXUXUXUXUXUXUXIXUXGX/   1 . ",
"  i   =XUXPXUXUXUXUXUXUXUXPXUXnX,   - . ",
"X y   1XUXPXUXUXUXUXUXUXUXPXUXiX  4 # . ",
"O w   8XUXPXUXUXUXUXUXUXUXPXUX:X  y X   ",
"# 9   eXUXPXUXUXUXUXUXUXUXPXUXR.  p     ",
"$ 5   uXUXPXUXUXUXUXUXUXUXUXUXr.  t     ",
"& <   sXUXPXUXUXUXUXUXUXIXUXZXC   1     ",
"= *   gXUXPXUXUXUXUXUXUXPXUX6X  y       ",
"- +   kXUXPXUXUXUXUXUXIXUXLXu.  q       ",
";     lXUXPXUXUXUXUXUXPXUXqX  w X .     ",
":     zXUXPXUXUXUXUXUXPXUX<X  t X .     ",
";     lXUXPXUXUXUXUXUXPXUX=X  y .       ",
"; O   kXUXPXUXUXUXUXUXPXUXoX  i .       ",
"= -   fXUXPXUXUXUXUXUXPXUX_.  p         ",
"% 4   iXUXPXUXUXUXUXUXPXUXY.  p         ",
"O e   6XUXPXUXUXUXUXUXIXUXC.  p         ",
"  s   +XUXKXUXUXUXUXUXIXUXf.  u         ",
"  e   p.:XZXUXIXUXIXUXUXUX4.  r         ",
"    6   n SXUXIXUXUXIXUXHX'   8         ",
"  . <   v BXUXUXHXaXUXUXVXx   <         ",
"  . :     cXUXUXyXg.UXUXkX  * @         ",
"  . % 3   iXUXUXZ.- DXUX7X  u           ",
"    . u   -XUXvXs   tXUX].  s           ",
"      y   m.UXC.    P.UXu.  w           ",
"      +   d 8.  &   A Q.d   @ .         ",
"        O     $ . +       o             ",
"          + 4 o     # 6 O               ",
"                      .                 ",
"                                        ",
"                                        ",
"                                        ",
"                                        ",
"                                        ",
"                                        ",
"                                        "
};
