/* XPM */
static char *_abf1b7b237045c0a13e64be054186c3gRY5Gv4BK7FyoQfL[] = {
/* columns rows colors chars-per-pixel */
"10 10 84 1 ",
"  c #5C1F1F",
". c #553232",
"X c #573434",
"o c #420042",
"O c #430047",
"+ c #460047",
"@ c #40004B",
"# c #43004E",
"$ c #48004F",
"% c #501A4D",
"& c #560055",
"* c #541552",
"= c #541455",
"- c #5A1858",
"; c #522452",
": c #532453",
"> c #572A59",
", c #5C2F5B",
"< c #503158",
"1 c #53325A",
"2 c #59345E",
"3 c #693669",
"4 c #683869",
"5 c #574F4F",
"6 c #5C4F4F",
"7 c #7B5251",
"8 c #7B515B",
"9 c #7C525D",
"0 c #6E5669",
"q c #6A556C",
"w c #715E72",
"e c #775E74",
"r c #7D6A65",
"t c #70616C",
"y c #7B606E",
"u c #736D6B",
"i c #746476",
"p c #766979",
"a c #7D6F7C",
"s c #767270",
"d c #7A707D",
"f c #895757",
"g c #8A654E",
"h c #97674C",
"j c #8F6165",
"k c #82606D",
"l c #836E6C",
"z c #886969",
"x c #8D6D6B",
"c c #946060",
"v c #906565",
"b c #976665",
"n c #9F6A68",
"m c #94746F",
"M c #897371",
"N c #877C7C",
"B c #977575",
"V c #997A75",
"C c #9D7E7C",
"Z c #857984",
"A c #8F7F80",
"S c #8A8181",
"D c #8B8685",
"F c #86818A",
"G c #91858B",
"H c #918A8D",
"J c #958C8C",
"K c #968E8F",
"L c #8E8B90",
"P c #969394",
"I c #9E999C",
"U c #A18181",
"Y c #A48787",
"T c #AF9286",
"R c #A69392",
"E c #A59B9B",
"W c #A5A3A3",
"Q c #A4A2A4",
"! c #ABA2A2",
"~ c #A8A3A6",
"^ c #A9A4A7",
"/ c #ADA9AA",
"( c #B2B5B5",
") c #BCBCBC",
/* pixels */
"hjxcbzvncg",
"VPH/IR!GEr",
"ULOwpy0$FM",
"Ya+&,2&=yN",
"Bq%*43-oeN",
"Cd@<;;<#iM",
"Y~8k>>k9~N",
"C(TB1>BT)S",
"fKWWZZWWJ7",
" X6sDDu5. "
};
