/* XPM */
static char *_96c646c69b64d86c6fb591db6316491bOcZhU9sheMeC9QN[] = {
/* columns rows colors chars-per-pixel */
"32 32 202 2 ",
"   c black",
".  c #120202",
"X  c #1B0000",
"o  c #220000",
"O  c #2B0000",
"+  c #350000",
"@  c #311D1D",
"#  c #3D1A1A",
"$  c #2B0031",
"%  c #360033",
"&  c #3C003C",
"*  c #3B1A3D",
"=  c #232828",
"-  c #2B2C2C",
";  c #383B3B",
":  c #4B0000",
">  c #530303",
",  c #5A0000",
"<  c #461918",
"1  c #551B1B",
"2  c #630000",
"3  c #6A0303",
"4  c #7C0000",
"5  c #780606",
"6  c #601018",
"7  c #7A0021",
"8  c #4B2727",
"9  c #572C2C",
"0  c #4A2C3A",
"q  c #483A3A",
"w  c #543534",
"e  c #5A3636",
"r  c #593638",
"t  c #5C3C3C",
"y  c #633E3E",
"u  c #3C0041",
"i  c #450045",
"p  c #450747",
"a  c #490047",
"s  c #4D004D",
"d  c #4D0B4D",
"f  c #500C4E",
"g  c #441343",
"h  c #491549",
"j  c #4E0051",
"k  c #520052",
"l  c #520D52",
"z  c #570059",
"x  c #5A005B",
"c  c #5A0E5A",
"v  c #48145C",
"b  c #531452",
"n  c #511A51",
"m  c #432343",
"M  c #422B41",
"N  c #4B244B",
"B  c #4C2B4C",
"V  c #51264F",
"C  c #4A364A",
"Z  c #512451",
"A  c #542B54",
"S  c #5A285C",
"D  c #563656",
"F  c #5A3D5B",
"G  c #5E0061",
"H  c #620062",
"J  c #660069",
"K  c #6B036C",
"L  c #651768",
"P  c #720075",
"I  c #780579",
"U  c #701670",
"Y  c #6B346D",
"T  c #663869",
"R  c #444344",
"E  c #4C434C",
"W  c #454A4A",
"Q  c #4A4E4E",
"!  c #574957",
"~  c #5D425D",
"^  c #4E5151",
"/  c #575657",
"(  c #5C585C",
")  c #754949",
"_  c #66595B",
"`  c #725E5E",
"'  c #634B62",
"]  c #684C68",
"[  c #635564",
"{  c #6A536B",
"}  c #754676",
"|  c #734778",
" . c #7C4A7D",
".. c #705370",
"X. c #735A72",
"o. c #686767",
"O. c #6B626C",
"+. c #7C6565",
"@. c #6E6D7B",
"#. c #716471",
"$. c #716C73",
"%. c #7B6C7B",
"&. c #767676",
"*. c #7B7374",
"=. c #7C727B",
"-. c #840000",
";. c #8B0101",
":. c #890E0E",
">. c #900101",
",. c #9B0000",
"<. c #A90000",
"1. c #B40000",
"2. c #A73E00",
"3. c #BC3D3C",
"4. c #C33B3B",
"5. c #CB3E3E",
"6. c #D53F3F",
"7. c #8B522D",
"8. c #885133",
"9. c #9F5732",
"0. c #AC5824",
"q. c #B4403E",
"w. c #AC6134",
"e. c #D5572F",
"r. c #B83A46",
"t. c #C43943",
"y. c #885F5F",
"u. c #A86142",
"i. c #BD6940",
"p. c #A77057",
"a. c #8E6060",
"s. c #836D6D",
"d. c #826B76",
"f. c #926D72",
"g. c #837272",
"h. c #8A7676",
"j. c #857C7E",
"k. c #8D7B7B",
"l. c #A16F6F",
"z. c #A47466",
"x. c #A47676",
"c. c #B77272",
"v. c #AF9400",
"b. c #B6AD00",
"n. c #9B8622",
"m. c #BC8F2A",
"M. c #8A8666",
"N. c #9C8277",
"B. c #AE9E6B",
"V. c #A88578",
"C. c #CB8B72",
"Z. c #7F7581",
"A. c #827B83",
"S. c #8F7689",
"D. c #7F8181",
"F. c #878584",
"G. c #8B8586",
"H. c #8B828A",
"J. c #8B8C8C",
"K. c #928686",
"L. c #9B8585",
"P. c #988788",
"I. c #938B8C",
"U. c #9B8C8C",
"Y. c #8E8B92",
"T. c #948D94",
"R. c #8E9292",
"E. c #969395",
"W. c #9B9393",
"Q. c #999798",
"!. c #9C9699",
"~. c #969A9A",
"^. c #9C9B9B",
"/. c #A98686",
"(. c #A38B8B",
"). c #B58989",
"_. c #A39494",
"`. c #A89694",
"'. c #A99893",
"]. c #A39E9E",
"[. c #AB9D9B",
"{. c #B59999",
"}. c #B7A19A",
"|. c #A49FA0",
" X c #9CA1A1",
".X c #A4A3A3",
"XX c #ABA6A5",
"oX c #ABA9A7",
"OX c #AEABAB",
"+X c #B9A6A5",
"@X c #B4ADAC",
"#X c #A5AEB2",
"$X c #ADB1B2",
"%X c #B4B3B3",
"&X c #BCB4B3",
"*X c #B7B9B9",
"=X c #BBBCBC",
"-X c #CD9696",
";X c #C1ABA9",
":X c #C2BAB9",
">X c #BFC0C0",
",X c #C3C5C5",
/* pixels */
"g y w t r e q ; e e e e e t E y e e q ; y y y t e e 9 w t w 0 * ",
"m.e.t.4.4.4.) ` 6.3.3.3.3.4.3.3.4.4.) _ 6.6.5.5.4.4.4.3.q.r.w.n.",
"b.M.E.^.].^.~.~.^.^.^.^.^.^.^.^.^.].E.Q.^.^.^.^.E.^.~.^.^.Y.B.v.",
"7 y.f.a.o.g.h.k.s.s.g.g.g.g.s.s.s.s.s.s.g.g.s.g.k.l.c.*._ K.` 6 ",
"5 L.x.[.&.F.%X^.%X&X@XOXOX@X%X%X%X%X$X$XoX@X%X|.U.&X[.$._.c./ X ",
"< .XR.J.*XJ.G.A %.*X,X>X=X%XE.J.J.(.C.:X=X=X.XX.s  X X*X.Xo.&.O ",
"1.).XX*.$X^.( / & s A.T.OX%XD & i 7 C.}.R.#.k i ( =.R.>XZ.N.J.;.",
";.'.{.W.J.T L ( ^ g z k s ^.T.i a H. Xv k x m ! ( x | R.&.U.I.3 ",
">.(._.@X^.B G K D C u h ~ .XZ.a a d..XF d g M B z K Y F.F.W.I.2 ",
"2 P._.,XJ./ C L J J a B F Q.%.i a %.E.! N s c k L ..o.$.J._.J.: ",
"@ U._.@XT h E E D Y H d & ~ ' s j ' ~ & p z S ..$.[ * B W._.J.  ",
"1.-XOX@XT s i u * U H j l s a B B a i d s H I A b u & D W._.I.o ",
",.{.[.].$.D A m g z H k s Z { } | ] Z k x K L d h u M $.W.`.I.X ",
",.S.!.d.A ' ' D B g k K z B  .I P  .V G K G Z C M m ! S S.;X^.  ",
";.x.J.#.s z k s s d d k k B } K P } Z z z l s p p a b G S.+XW.  ",
"w K.U.*.& s s A D D s D A l { { ..o.l A D s B D B i s j j.[.J.. ",
"<.)._.].G.%.O.~ A s F F a k n [ [ n s s D ~ a N ! O.%.J.].U.G.4 ",
";./.!.XXH.{ A s s F F s ' A s s a k A ' j F ~ i k S { A.H.g.*.2 ",
";.(.W.XXD a b j F ~ s #.#.d s l l k l #.#.s ~ ~ k c k A G.j.*.2 ",
"> I._.OXY.& i D ~ s l ' a k k k s j k a ' d a ~ D a i Y.oXU.K.: ",
"O ^.+X:X>XH.Z.@.u i T.| f k A b n A k s | T.a u @.Z.H.*XoX_.J.  ",
"<.-X[.@X*X*XoXz.d.!.@Xf.$ i F k k F i $ f.@X!.d.z.oX=X>X&X[.!.X ",
",.)._.XX*X%X[.9.w.i.2.7.I.E.X.a a X.E.I.7.2.i.w.9.XX>X,X:X+X].  ",
"<.).U.|.OX*X'.8.u.0.V.p.OX%.i l l i Z.OXp.V.0.u.8.'.*X%X@X`.I.X ",
"4 /.U..XOX$X[. XV.N.#X*.V & k f l k u Z *.#XN.V.^.[.*X*XXXW.I.  ",
"1 Q.I.Q.>X*X*X*XoX[.#.% & ~ =.s s =.~ % % O.[.XX=X*X*X=XU.P.R.X ",
"<.x.oX+.h.Q.OX%X=X*X$XE.H.].{ s a { ].H.Q.%X=X=X%XoX^.k.+.oXg.3 ",
";.: *.oX].U.h.s.K..X*X>X=X*X=.u i =.=X=X=X%X.XK.s.h.P.]..X*.> 3 ",
":.5 , 9 j.E..XoXU.h.g.K.].%X*Xj.A.=X%X].K.s.h.W.XX.XI.o.1 > 3 >.",
"-.;.5 4 2 2 : ` I.Q.].U.P.s.k.^.Q.k.+.L.I..XQ.J.o.> > 3 4 :.4 -.",
"< 8 # # 8 8 # +     W F.R.^.E.P.P.E..XR.o.q O   . # 8 8 < # < < ",
"W Q W Q Q Q Q Q W R =     - Q D.F.^ -     = ; ; W Q Q Q Q W Q Q "
};
