/* XPM */
static char *_7e5a2fae03d42b0a24fe49c5278fbcboxyTAQrIdhs8SQKv[] = {
/* columns rows colors chars-per-pixel */
"35 100 254 2 ",
"   c #010000",
".  c #0C0000",
"X  c gray5",
"o  c #140000",
"O  c #1A0000",
"+  c #001818",
"@  c #191919",
"#  c #290000",
"$  c #380404",
"%  c #3A1309",
"&  c #2C1919",
"*  c #321C1C",
"=  c #2A0028",
"-  c #350033",
";  c #3C013C",
":  c #3D1C3C",
">  c #0A2D2D",
",  c #242424",
"<  c #242A2A",
"1  c #2A2C2C",
"2  c #372424",
"3  c #3C263C",
"4  c #2C3333",
"5  c #343535",
"6  c #3A3636",
"7  c #363A39",
"8  c #3C3B3C",
"9  c #430101",
"0  c #4D0303",
"q  c #540101",
"w  c #5C0101",
"e  c #580A0A",
"r  c #4E1717",
"t  c #620101",
"y  c #6C0000",
"u  c #6A0B0B",
"i  c #740101",
"p  c #7C0000",
"a  c #711818",
"s  c #42023F",
"d  c #6E1F20",
"f  c #4B2E31",
"g  c #593737",
"h  c #722626",
"j  c #742C2C",
"k  c #683939",
"l  c #70542F",
"z  c #440044",
"x  c #460744",
"c  c #4C004C",
"v  c #4C0C4C",
"b  c #50004F",
"n  c #4C134C",
"m  c #461948",
"M  c #4B0152",
"N  c #510151",
"B  c #520B52",
"V  c #5A015B",
"C  c #59055B",
"Z  c #521352",
"A  c #531C53",
"S  c #59165A",
"D  c #482748",
"F  c #4A384A",
"G  c #532453",
"H  c #532C53",
"J  c #582B59",
"K  c #4D3054",
"L  c #553455",
"P  c #543A54",
"I  c #59385A",
"U  c #603759",
"Y  c #5E0262",
"T  c #5E1A61",
"R  c #630164",
"E  c #660668",
"W  c #6A016D",
"Q  c #740274",
"!  c #701273",
"~  c #5E3662",
"^  c #662569",
"/  c #633A69",
"(  c #6E3575",
")  c #094545",
"_  c #174545",
"`  c #244747",
"'  c #384242",
"]  c #444444",
"[  c #49474C",
"{  c #4B4B4B",
"}  c #584647",
"|  c #544754",
" . c #5C435C",
".. c #5C4A5C",
"X. c #4F5350",
"o. c #545354",
"O. c #5C545B",
"+. c #5D5C5C",
"@. c #634545",
"#. c #694B4B",
"$. c #744A4A",
"%. c #7C5949",
"&. c #61485F",
"*. c #685656",
"=. c #775757",
"-. c #5E625E",
";. c #746651",
":. c #5E5465",
">. c #634664",
",. c #624C62",
"<. c #694F6B",
"1. c #635463",
"2. c #685769",
"3. c #6B5B6B",
"4. c #6A5D75",
"5. c #785C78",
"6. c #676565",
"7. c #6B636B",
"8. c #6D6A6B",
"9. c #77696A",
"0. c #736574",
"q. c #736A73",
"w. c #796B79",
"e. c #687374",
"r. c #737373",
"t. c #797576",
"y. c #7B737B",
"u. c #7C7D7D",
"i. c #840101",
"p. c #8B0000",
"a. c #8A0808",
"s. c #930000",
"d. c #990707",
"f. c #911818",
"g. c #A70202",
"h. c #B90000",
"j. c #B21515",
"k. c #9B2E03",
"l. c #B00830",
"z. c #8F2426",
"x. c #983535",
"c. c #B72928",
"v. c #A73736",
"b. c #BA3636",
"n. c #C30000",
"m. c #CD0000",
"M. c #D80101",
"N. c #D71F1F",
"B. c #E70000",
"V. c #D61B24",
"C. c #C32626",
"Z. c #C72C2C",
"A. c #D43030",
"S. c #9D4D0B",
"D. c #A54800",
"F. c #B34B00",
"G. c #AC4E13",
"H. c #B65612",
"J. c #98512E",
"K. c #AC532B",
"L. c #B25C38",
"P. c #A9732F",
"I. c #DE5713",
"U. c #D5720D",
"Y. c #885B4E",
"T. c #945656",
"R. c #A04C4C",
"E. c #9B6957",
"W. c #8D7156",
"Q. c #A76C5A",
"!. c #B46A52",
"~. c #866868",
"^. c #986C69",
"/. c #867475",
"(. c #847D7D",
"). c #8B7B7B",
"_. c #927171",
"`. c #957C7C",
"'. c #9C7D7D",
"]. c #AF6C68",
"[. c #A87264",
"{. c #A87A78",
"}. c #B77A7A",
"|. c #C57272",
" X c #ADA017",
".X c #CCA00F",
"XX c #D1CC00",
"oX c #A78876",
"OX c #A4A76F",
"+X c #CDB663",
"@X c #7D7884",
"#X c #861087",
"$X c #852387",
"%X c #803581",
"&X c #847984",
"*X c #90768E",
"=X c #728080",
"-X c #7E8181",
";X c #7E9090",
":X c #828182",
">X c #8C8484",
",X c #8A848B",
"<X c #85888B",
"1X c #8C8C8C",
"2X c #928484",
"3X c #9A8886",
"4X c #928989",
"5X c #9B8D8C",
"6X c #9C908E",
"7X c #8D8A91",
"8X c #938B94",
"9X c #8D9090",
"0X c #8D949A",
"qX c #949393",
"wX c #9D9494",
"eX c #97989B",
"rX c #9B9B9B",
"tX c #A58988",
"yX c #AA908F",
"uX c #A49493",
"iX c #AA9796",
"pX c #A59C9C",
"aX c #AA9D9D",
"sX c #B39C9C",
"dX c #B89898",
"fX c #ADA19C",
"gX c #9D99A0",
"hX c #A19AA0",
"jX c #B697A0",
"kX c #9CA4A5",
"lX c #A3A3A3",
"zX c #ACA3A2",
"xX c #A6ACAB",
"cX c #A8A8A8",
"vX c #ABACAC",
"bX c #B7A8A7",
"nX c #B5B0AE",
"mX c #A9AEB1",
"MX c #AEB2B2",
"NX c #ABB4B6",
"BX c #B4B4B4",
"VX c #BAB4B4",
"CX c #B6B8B7",
"ZX c #B6B9B9",
"AX c #BABBBB",
"SX c #CC8B87",
"DX c #DC9890",
"FX c #C2ACAA",
"GX c #C5B6B6",
"HX c #BEC0BF",
"JX c #BDC1C1",
"KX c #C3C4C4",
"LX c #C9CBCB",
"PX c #CFD2D2",
/* pixels */
"6 5 7 6 8 6 6 7 7 5 5 6 6 6 6 6 6 6 6 6 7 6 8 6 8 8 8 6 7 7 6 6 6 6 6 ",
"' ) _ ) _ _ _ g ' ) _ _ ) _ ` ` _ _ _ _ 8 ' ) _ _ _ ) ) > ) ` ` ` ` 7 ",
"} #.@.@.#.@.} { X.k P @.} #.#.#.#.@.@.@.{ [ $.$.=.#.@.@.g k #.#.} } 8 ",
"z.V.c.C.c.C.c.' Y.V.C.C.C.Z.Z.Z.Z.C.C.c.} #.A.A.Z.Z.N.C.j.C.c.b.c.j.k ",
"P.I.M.m.m.M.h.> x.B.m.m.m.n.m.m.m.n.M.n.2 j B.B.M.M.M.m.M.m.n.h.m.F.P.",
".XU.l.v.b.b.x.) T.A.x.v.v.v.b.v.v.x.b.v.' $.b.b.b.b.v.v.b.v.v.x.l. X X",
"XXOXdXdXjXsXaXkXzXdXaXaXsXfXsXsXsXaXdXaXeXlXdXsXdXsXsXsXdXsXsXsXjX+X X",
"XX3XMXmXmXxXxXvXvXxXMXxXxXxXxXxXmXmXxXvXvXxXxXxXmXxXmXxXmXxXxXmXkX+X X",
" X;.u.-X-X-X@XoX:X-X-XoX@X-X-X-X:X-XoX-X-X@X:X-X-X=XoX@X-X-XoXu.@XW.P.",
"l %.e.@X9X<X;X9X9X9X9X1X;X<X9X9X7X7X;X<X9X9X9X9X9X<X;X9X;X;X;Xu.:.;.J.",
"f T.>X_.1X9X3X4X4X2X4X4X4X2X1X4X4X4X2X4X1X4X1X2X4X4X,X3XtXyX4Xt.<X;.k ",
"z.Y.{.h.' #.d d h h h h h h h h h h h h h h h h h h d z.B.].' F kX#.% ",
"f.^.*X|.' g 3XuX3X`.`.`.`.`.`.`.`.`.`.`.`.`.`.`.`.`.5XyXSXR._ T.yX} $ ",
"a ].oXSX<X*.CXLXAXZXZXBXCXCXCXCXZXCXCXCXCXCXCXCXCXCXZXKXJX8.e.SX].{ $ ",
"u `.;X8XlXt.xXvXeXKXZXBXBXBXCXBXBXCXBXVXBXCXCXCXZXMX&XvXCXeX<XbXT.o.$ ",
"% 4XqX&XBX:XeX5X7.AXLXBXBXBXBXCXVXZXZXCXNXBXBXnXAXlXN 8XMXgXcXkX8.-.O ",
"@ qXlXt.AX1X<X<XD hXPXGXCXCXVXBXMXMXnXnXVXnXBXBXHX1XM ,XvXqXHXoX8.8.  ",
"> 0XvX6.CXlXu.(.b 3.VXLXAXAXZX4Xu.0.0.].DXnXBXHXrX<.c &XrXrXKXt.:Xr.  ",
"p.yXBX*.nXBX:X8.N c ,XAXJXAXAXw.f x m k.U.nXZXnXq.N z <XrXcXKX8.1Xt.w ",
"M.|.NX6.cXAX9Xo.m N H wXCXBXZXw.z J 2.J.I.bXNXoXS B z :XrXnXHX8.1Xr.g.",
"n.}.BX9.rXBXt.+.F b b 2.,XcXAXy.s J ~ J.dXbX@X>.N N P r.y.CXMX*.wXt.d.",
"s.*XVX).eXlX>.6.o.z n V I 1XBX8Xz B c ^.CX1XZ Y B c +.3.P vXlX*.rX(.i.",
"s.oXGXoXeX:XY :.-.m x E Y  .rXcXc B z wXrX&.R E c m -./ V 1XeX9.pX(.p ",
"s.*XbXtXeX0.Y ~ +.[ s E C c &XvXv b z cX&XN E E z [ +.T Y &X5X9.uX(.y ",
"p.{.zXuXrX7.Y R | o.3 V Z c w.nXv b v vXw.M S V 3 X.[ V E &X7X9.pX(.t ",
"s.{.aXiXkX3.N E S | ' z n z q.vXn b v MXq.; Z c 8 [ n R W w.<Xw.uX(.t ",
"s.&XaXjXmX8.z ! R L F ; z D rXrXc B c pXeXD z x 3 D B E W 0.<Xt.pX(.t ",
"i.oXpXvXCXr.- E W C x ; ; ,.BX,Xz A z :XMX1.; x x v C W E r.1Xy.zX(.y ",
"p.'.rXbXHXu.: V E R V z D 3.qXy.; A s y.qX3.D z v c E W / t.9XoXaX(.w ",
"i `.pXVXCX8.{ A R R W z D &.y.8Xz Z z 8Xt. .D c C M R ^ 3.8.9X3XaX(.0 ",
"# oX0XVXgXF +.F Y R Q M m ; q.vXv N v vXq.; m N R B R 2.8.8 -X4XaX(.$ ",
"  &XrXbXeX- +.o.J E W R x z 2.<Xc N c ,X1.; x V Y C >.@X-.= r.4XpXu.  ",
"+ =XiXzXeX= [ X.} ~ ^ W v c P O.c N c O.P z x V A ~ 8.t.[ = w.4XaX-X  ",
"F ,XpXzXgX; G 3 F o. .V B z Z A b b b A n z c N H r.-XL m = u.wXaX=X  ",
"x.SXhXzX8Xz n s 3 [ ( R c c b c N N N c z z z V ^ 1.2.z x = &X5XpX&X# ",
"h.SXcXbX7XM n z s z Q R c c b b b c N b z c c R #XN M x m - &X5XaX(.# ",
"g.DXZXnX8Xc n z ; z W R N b N N v v B N c c b R #XC b z x - @X4XrX@XO ",
"g.SXnXbX7XN Z z z ; R V N b b K | 1.| H c b N Y Q N b z : - y.4XpXoXo ",
"g.SXvXiX<XB B z z z V V c b b | 7.w.2.{ b V V Y Q N c z s x <X5XlX(.o ",
"s.*XhXyXrX..N z z c V R c b b  .%X( %X| b V b W R c z x - ..eX5XaX(.o ",
"a.{.pX5X,X-.,...F D Z V Y c c 3.$XQ #X3.N N R W J L D 3 F -.&XuXbX>Xo ",
"a.}.pX*XL o.r.-.o.8 : V Q N c 5.$XR $Xw.M V Q V P o.8 8 o.o.( tXbX>X  ",
"z.{.eX).J G >.P K D v c Q E c >.! W ! ,.c W Q N A D m D F G / iXGX4X  ",
"z.[.qX).L N C c c c c c R R z >.! W ! <.c W R N C z z z z N ( iXGX5X  ",
"f.].eX/.J N C M c c c c N N z 5.$XE $X5.c V N V M z c z M N / tXVX>X. ",
"f.].1X/.J M V B c N b N b b c ,.$X^ #X,.b N N V c c z c v V ( tXnX>X. ",
"d _.<X9.J N N C b c G v B A b  .%X^ #X| V A V B D z c z c V ( 3XbX:X  ",
"6 t.eX/.J c C b N c P Z v P b 6./ ^ / 6.N P Z n P z x z c V / &XbXu.  ",
") =XuX(.I M B N n ..J c H F c 6.e.P q.6.c L H c K | m z v V / 2XzXt.  ",
"k (.wX>X1.z v A P O.Z c P G c ..t.-.t...c G P c n O.F A v C 2.4XzXu.$ ",
"h.}.pX5Xy.s z o.7.G b G ,.b M Z O.t.O.Z N N ,.G c D 7.o.z c y.6XaXu.i.",
"h.tXpXuXrXw.y.6.&.c c  ...b v c H 7.H c B M .. .z z ..7.y.q.rX6XpXu.s.",
"g.{.rXuXZXeXeX3.c B c :.J c N N B v B N B c H :.c n z 7.qXrXBX4XwXt.p ",
"g.*XpXuXMX1X2.I c M H 1.c N c N N c c N c N M *.G z c U 2.1XcX(.2X9.y ",
"i.*XsXiXrX3.s c B c  . .c J P v b B b v I G b  . .z v N c 3.8X(.).9.w ",
"i.oXpXpX,X; A b N c *.G Z 1.1.B N b N Z 1.1.Z G O.c N V S c 0.t.t.6.w ",
"p.'.pXpX&X; Z b b J 1.c I :X .b c N N c  .:XP c *.H b N S z 0.(.(.9.y ",
"s.`.pXpX,Xs Z B c  . .z 1.:XG b B b M b G :X2.z  . .c C C z y.>X>X9.y ",
"s.'.aXiX9Xz Z N c 1.H z 0.2.c v b N b B c 2.q.z G 1.b V C b :X>X>X9.t ",
"p '.pXpXrXz B M I &.c H /.G c N N b N b c G y.J c 1.I N C c qX>X4Xt.t ",
"w `.pXuXcXv c c .. .c I 0.c B M c N N M B c q.I c I ..N N Z lX6XwX/.q ",
"$ (.aXiXBX .c Z 1.A c Z J M b b N N b N b c J Z M A 1.Z N  .BXwXpX(.9 ",
"  <XzXiXAXt.; H ..b c >.H c N c c N c c b c H  .c c ..L ; y.ZXuXlX(.o ",
"  <XbXsXLXeXH 2. .c z &X>.c B Z A N A Z B c >.&Xc c  .2.H rXAXwXpX-X  ",
"> 0XGXFXPXvX,X8X&.c H rX%Xz b P  .c ..I b z ~.gXS M  .4X1XvXZXuXeXu.  ",
"a dXFXFXPXBXvXxXq.- 1.BX*Xz N J  .c I J b z *XBX<.- w.vXvXBXCXpXkXoX. ",
"h.SXbXsXJXBXBXvX>Xv ,XAXrXx M B v N v Z N v rXAX<Xv ,XvXBXBXAXfXbX,X# ",
"j.}.aXyXAXBXBXtXE.0XMXbX^.M Z z b N b z v M ~.xXNX0XE.3XZXAXJXjXbX4XO ",
"z.}.pXiXZXBXNXQ.F.iXbXoXk.s v 4.A c A 3.v s k.oXbXiXF.Q.CXKXLXbXbX4X  ",
"g.}.pXuXCXBXBX!.F.L.L.K.S.k I qXJ c J qX .k S.K.L.L.F.!.JXJXPXbXGX6X  ",
"d.oXpXiXAXnXBXyXY.D.F.D.;.eXhX,Xc B c 1XhXqX%.D.F.F.%.yXAXGXLXbXVX4X  ",
"g.*XpXuXCXBXCXlX%.S.H.S.Y.BXAX3.z A z 2.AXBXY.S.H.S.=.lXCXAXKXsXbX,X. ",
"g.}.rXuXCXBXBX3XF.H.H.G.G.nXcXc N N N c cXnXG.G.H.H.F.oXZXBXAXfXbX>X  ",
"j.}.rX5XBXnXCXQ.J.L.K.oXG.bX@Xz Z b Z z @XbXG.oXK.L.J.Q.CXMXZXaXzX>Xo ",
"z.].qX3XxXvXVXY.8.Q.E.kXE.wXK b N b M b K 5XE.kXQ.Q.8.Y.VXBXZXuXpX(.o ",
"s.}.qX3XxXcXnXY.9X[.3XZXrX*.v N N b B M c 1.rXZX3X[.9XW.BXBXZXwXaX(.o ",
"p.}.rX5XBXvXnXqXxX[.wXCX<Xm b N c N c B N m :XCXwX[.vXqXBXBXBXuXpX(.o ",
"d `.pXuXCXBXBXBXZX[.6XeXD c b Z G c A Z b B D eXuX[.ZXBXBXBXZXwXaXu.  ",
"r :XlX2XCXBXBXBXZXoXtX4.z B b P ,.c ,.L c B z 4.tXoXZXBXBXBXZX2XaX-X  ",
"> =XpX).ZXBXBXBXBXfXiX| z B c q.,.z ,.0.c B c P iXpXBXBXBXBXAX).aXu.  ",
"f >XlX~.CXBXBXBXBXBXBX8.n c L qXJ c J qXL c n 8.nXCXBXBXBXBXCX9.aX-X. ",
"h.}.xX#.lXZXBXBXBXBXBXlX+.= 7.eXc b z qX7.= 1.lXBXCXBXBXBXCXxX$.cX-Xp ",
"m.}.MX=./.hXMXCXBXBXBXVX1X3.wX,Xz A z ,XeX3.1XZXBXBXBXCXBXzX/.#.MX9.s.",
"s.$.MX2Xy 9.cXCXBXBXBXVXMXvXCXw.z A z y.BXvXBXBXBXBXBXBXcXt.y /.vX*.t ",
"s.u rXMX/.k Y.2XxXAXBXBXBXBXAXy.z A z t.ZXVXVXBXBXZXmX4XY.$./.vXeXe q ",
"d.t t.BXxX/.j k 1XvXBXBXBXBXCX1Xz Z z 1XCXBXBXBXBXvX4Xk j (.MXBXt.q e ",
"d.w g ,XBXnXhX=.i (.nXBXBXBXCXcXL c L cXVXBXBXBXBX(.i =.pXvXCX1Xg q i ",
"p.e 9 *.kXJXAXrX=.k ).cXZXBXBXVXq.; 8.CXBXBXCXxX).k =.rXZXBX1X*.0 e p.",
"p.y e 0 8.cXbXCXlX=.u >XvXBXBXAXqX- qXZXBXBXvX).u =.kXCXBXqXf e e t s.",
"i.s.y q k *.u.CXBXlX9.u ~.vXZXVXcXO.vXZXCXxX~.u 9.aXBXBXu.@.e q t p s.",
"i.s.i i q $ } >XvXAXrX~.k /.5XvXBXqXBXvXwX/.k ~.lXAXvX2Xg 0 e t y p p.",
"i.i.p p.w u e f :XBXBXxX9.i k qXBXBXBX5Xk i 9.vXBXnX:Xf r e q i.p i p ",
"i.p.p p i i.t 0 @.9.qXAXcX5X*.j >XxX2Xh *.5XbXZXqX8.X.9 w i i.p.p.i.i.",
"i i y t y i.w e 0 # O.eXBXZXwX$.#./.#.$.wXCXxXeX*.. > r q i p p p p p ",
"0 q 0 0 0 0 0 0 0 % < ] eXVXBXrX$.i $.rXBXvX6.f r % < r 9 0 q 0 0 0 0 ",
", * * 2 2 * * 2 2 2 @   -.t.lXZXpX5XaXZXkXr.5 o & & 1 2 * & * & & & * ",
"5 5 4 1 5 5 5 4 4 1 , , X   r.lXvXAXMXkXe.  & < < , < 1 5 7 5 1 < < 4 ",
"] ] 8 6 ] ] { 7 5 1 1 1 1 @ 6 ] -XCXoX' 5 @ , 1 1 < 1 6 ] [ ] ] 7 F ] ",
"X.o.{ { o.o.o.{ { ] ' 5 5 , X   ] -X[   X , , 4 5 8 ] [ o.o.X.X.{ X.X.",
"o.o.o.o.o.o.o.o.o.O.X.6 5 < & , @ @ @ , , , @ 4 6 { o.o.o.o.o.o.o.o.o."
};
