/* XPM */
static char *_b18a4b1452243d89a7dbe669e097eb0CfreayiS2b8gsIMh[] = {
/* columns rows colors chars-per-pixel */
"64 64 123 2 ",
"   c #231F1D",
".  c #2E281F",
"X  c #202020",
"o  c #2C2C2C",
"O  c #363021",
"+  c #3A3321",
"@  c #383838",
"#  c #400000",
"$  c #4C0000",
"%  c #580000",
"&  c #640000",
"*  c #700000",
"=  c #7C0000",
"-  c #543C1C",
";  c #453D24",
":  c #585400",
">  c #706C00",
",  c gray25",
"<  c #484848",
"1  c gray33",
"2  c #64625F",
"3  c #646463",
"4  c gray44",
"5  c #7C7C7C",
"6  c #880000",
"7  c #980000",
"8  c #A40000",
"9  c #B00000",
"0  c #BC0000",
"q  c #C80000",
"w  c #D40000",
"e  c #E00000",
"r  c #EC0000",
"t  c #FC0000",
"y  c #FC2020",
"u  c #A86840",
"i  c #848400",
"p  c #9C9C00",
"a  c #CCC400",
"s  c #E4D800",
"d  c #FCF400",
"f  c #BDA847",
"g  c #DD884E",
"h  c #DD8950",
"j  c #E18A4D",
"k  c #F08F48",
"l  c #EE9E4D",
"z  c #F79246",
"x  c #F89D49",
"c  c #C7B24B",
"v  c #CCB64D",
"b  c #F9AD4D",
"n  c #E8AA53",
"m  c #FAB750",
"M  c #FABB51",
"N  c #D98F63",
"B  c #CEBD6C",
"V  c #CFBF7A",
"C  c #DDC654",
"Z  c #E8D04F",
"A  c #E4CC55",
"S  c #E4CE5B",
"D  c #FBC254",
"F  c #FCCC57",
"G  c #F5CB59",
"H  c #FCCF58",
"J  c #E7D051",
"K  c #EBD352",
"L  c #ECD358",
"P  c #F0D755",
"I  c #F2D956",
"U  c #FDD75A",
"Y  c #F5DC59",
"T  c #FADE5B",
"R  c #FEE35E",
"E  c #D6C46D",
"W  c #DDC96D",
"Q  c #D2C174",
"!  c #ECD567",
"~  c #F6DE6E",
"^  c #F9DF6A",
"/  c #EFD97C",
"(  c #F3DC74",
")  c #F1DA79",
"_  c #FCE164",
"`  c #F9E069",
"'  c gray55",
"]  c #918F89",
"[  c #979797",
"{  c #989898",
"}  c #BCB497",
"|  c #BBB49B",
" . c #A0A0A0",
".. c #AAAAAA",
"X. c #B7B4A7",
"o. c #B5B3AB",
"O. c #B9B5AD",
"+. c #BEBAAE",
"@. c #B5B5B5",
"#. c #B9B7B3",
"$. c #BCB9B2",
"%. c #BCBCBB",
"&. c #CE9D87",
"*. c #D2A48F",
"=. c #C3B682",
"-. c #C4BEAB",
";. c #D5C685",
":. c #D8C780",
">. c #D6C789",
",. c #DCCD94",
"<. c #D2C79F",
"1. c #D6C99B",
"2. c #D8CA99",
"3. c #EAD682",
"4. c #E4D28B",
"5. c #CDC4A4",
"6. c #C6C0A9",
"7. c #C8C1A8",
"8. c #D0C6A0",
"9. c #C0C0BF",
"0. c #C1C1C1",
"q. c #CACACA",
"w. c #D0D0D0",
/* pixels */
"@ @ @ @ , @ @ @ @ @ @ @ @ @ @ @ @ @ @ @ @ @ @ @ @ @ @ @ @ @ @ @ @ @ @ @ @ @ @ @ @ @ @ @ @ @ @ @ @ @ @ @ @ @ @ @ @ @ @ @ @ @ @ @ ",
"1 @ 1 < < < < < 1 < < < < < < 1 < @ < < < < < < < 1 1 1 1 1 1 < < < < < < < < < 1 1 1 1 1 1 1 < < < < @ @ @ < < 1 1 < < < < < @ ",
"@ r r w w w w w q w w w 8 < < 1 r r w q w w w w w w w w w w w w w w w w 8 < @ 1 r r r r w e e e e e w w w w w q q q q 0 0 0 8 < ",
"< d q 9 9 w 6 7 w 6 q 8 & o < 1 r 0 6 0 6 0 6 0 = 0 7 0 7 0 = 0 = 0 q 8 * o < @ w 8 q 9 q 9 9 q * q = q 9 q 6 9 8 = q 7 q 8 d o ",
"s a i @.@.@.%.@.@.@.@.@.@.@.@.@.@.@.@.@.@.@.@.@.@.@.@.@.@.@.@.@.@.@.@.@.@.@.@.@.@.@.@.@.@.@.@.@.@.@.@.@.@.@.@.@.@.@.@.@.@.a a > ",
"u p : 4 4 5 5 u 5 5 5 5 5 5 5 5 5 5 5 5 5 5 5 5 5 5 5 5 5 5 5 5 5 5 5 5 5 5 5 5 5 5 5 5 5 5 5 5 5 5 5 5 5 5 5 5 5 5 4 4 4 > N : ",
"< - 8 5 5 5 5 ] { { { { { { { { [ { [ [ [ [ [ { [ [ [ [ [ [ [ [ [ [ [ [ [ [ [ [ [ [ [ [ [ [ { { [ { { { [ { { { { 5 4 5 5 % u o ",
"< 0 = { 5 y 8     1 * * * * * & * * * * * * * * * * * * * * * * * * * * * * * * * * * * * * * * * * 8 9 t w u   $   5 0.4 % # o ",
"< 0 8 ..5 8 @.@.-.@.@.@.@.@.@.@.@.@.@.@.@.@.@.@.@.@.%.@.@.@.@.@.@.@.@.@.@.@.@.@.%.@.@.@.@.@.%.@.@.%.@.@.@.@.@.@.O.[ y 5 4 & $ o ",
"< = & @.{ # @.@.@.@.@.@.@.-.@.@.@.%.@.@.%.@.%.@.@.@.@.@.%.@.@.@.@.@.@.@.@.@.@.@.@.@.@.@.@.@.@.@.@.@.@.@.@.@.@.%.#.w.8 4 5   # o ",
"< < o w...# @.@.@.@.@.@.@.@.@.@.@.@.@.@.@.@.@.@.@.@.@.@.@.@.@.@.@.@.@.@.@.@.@.%.@.@.@.@.@.@.@.%.@.@.@.@.@.@.@.@.@.u   5 { X X o ",
"1 @ @ w.@.1 %.@.@.@.@.@.@.@.@.@.@.@.@.@.@.@.@.@.@.@.@.@.@.@.@.%.$.2.3.( ` ` ) 4.<.@.%.@.@.@.@.@.@.@.@.@.%.@.@.@.@.3 1 ' ..X o o ",
"r w w @.w.# %.@.@.@.@.%.@.@.@.@.@.@.@.@.@.@.@.@.@.@.@.@.@.@.7.3._ R R R R R R R R ` 4.$.@.@.@.@.@.@.%.@.@.@.@.@.@.5   [ ..% % w ",
"9 6 6 @.w.* @.@.@.@.@.@.@.@.@.@.@.@.%.@.@.@.%.@.%.@.@.@.$.4.R R R R R R R R R R R R R ` 8.@.@.#.@.@.@.@.%.@.@.@.@.u $ ..@.% % 9 ",
"6 8 6 @.w.9 @.@.@.@.@.@.@.@.@.@.@.@.%.@.@.@.@.@.@.@.@.6.( R R R R R R R R R R R R R R R R 3.$.@.@.@.@.@.@.@.@.@.%.' * ..@.% % 7 ",
"* 8 7 @.%.7 @.%.@.@.@.@.@.@.@.%.@.@.@.@.@.@.@.@.@.%.5._ R R R R R R R R R R R R R R R R R R ( $.%.@.@.@.@.@.@.@.@.' * ..@.% % = ",
"8 6 6 @.@.6 @.@.@.@.@.%.@.@.@.@.@.@.@.@.%.@.@.@.@.6._ R R R R R R R R R R R R R R R R R R R R 3.@.@.@.@.@.@.@.@.@.' * ..@.% % = ",
"* 8 & @.@.* @.@.@.@.@.@.@.@.@.@.@.@.@.@.@.@.@.@.%.3.R R R R R R R R R R R R R R R R R R R R R R 9.@.@.@.@.@.%.@.@.{ * @.@.$ % 6 ",
"* 9 & @.@.* @.@.@.@.@.@.@.@.@.@.@.@.@.@.@.%.@.@.7._ R R R R R R R R R R R R R R R R R R R R R R / %.@.@.@.@.%.@.@...* @.#.% % * ",
"# $ $ @.@.* @.@.@.%.@.@.@.@.@.%.%.@.@.@.+.8.,.3.` R R R R R R R R R R R R R R R R R R R R R R R R 7.@.@.@.@.@.@.@...* @.@.# &   ",
"o o o @.@.* @.@.%.@.@.@.@.@.@.@.@.6.4.` R R R R R R R R R R R R R R R R R R R R R R R R R R R R R 4.@.@.@.@.@.@.@...* @.@.X X o ",
"1 1 < @.@.* @.@.@.@.@.@.@.@.$.<./ R _ R _ R R R R R R R R R R R _ R R R R R R R R R R R R R R R R _ @.%.@.@.@.@.@...* @.@.  o o ",
"1 r r 0.0.= @.@.@.@.@.@.%.6.( R R R R R R R R R R R R R R R R R R R R R R R R R R R R R R R R R R R +.@.@.%.@.@.@...* @.@.& % o ",
"1 r 6 w.w.7 @.@.@.@.@.@.5._ R R R R R R R R R R R R R R R R R R R R R R R R R R R R R R R R R R R R 7.@.@.@.@.@.@...= o.@.&   o ",
"@ r 9 9.0.6 @.@.@.@.@.6._ R R R R R R R R R R R R R R R R R R R R R R R R R R R R R R R R R R R v ^ 5.%.@.@.@.@.@...= @.@.%   . ",
"< 0 % @.@.= @.@.@.@.@./ R R R R R R R R R R R R R R R R R R R R R R R R R R R R R R R R R R R R ] C 5.@.@.@.@.@.@.@.6 @.@.% $ . ",
"< 0 9 @.@.* @.@.@.@.2._ R R R R R R R R R R R R R R R R R R R R R R R R R R R R R R R R R R R A 5 C 6.@.@.@.@.%.@.0.7 0.0.% # o ",
"1 0 * ....* @.@.@.@.` R R R R R R R R R R R R R R R R R R R R R R R R R R R P v L R R R R R R A . Y #.@.@.%.@.@.@.q.7 w.w.% # o ",
"< q 8 ....& @.@.@.5.R R R R R R R R R R R R R R R R R R R R R R R R R R R L +  .2 A T R R R R R C / @.@.@.@.@.@.@.0.7 0.9.% # o ",
"< 8 7 [ [ $ @.@.%.4.R R R R R R R R R R R _ R R R R R R R R R R R R R R R c . 3 @ f R R R R R R U 1.@.@.@.@.@.@.@.0.6 %.9.% # o ",
"< < @ ....% @.@.@.3.R R R R R R R R R R R R R R R R R R R R R R R R R R R L + . O A R R R R G n g &.@.@.@.@.@.@.@.@.= @.@.X X o ",
"1 1 1 ....& @.@.@.3.R R R R R R R R R R R R R R R R R R R R R R R R R R R R L f L R R _ T l g g g h O.@.@.@.@.@.@.@.* @.@.X o o ",
"0 0 0 @.@.* @.@.@./ R R R R R R R R R R R R R R R R R R R R R R R R R R R R R R R R R U x z j g g g &.@.@.@.@.@.@.@.* @.@.% % 0 ",
"8 9 8 @.@.* @.@.@.4.R R R R R R R R R R R R R R R R R R R R R R _ R R R R R R R R R F z z z k g g g N @.@.@.@.@.@...& ....% % 8 ",
"8 = 6 @.@.* @.@.@.1.R R R R R R R R R R R R R R R R R R R R R R R R R R R R R R R M z z z z z k g g h @.@.%.@.@.@.[ % [ [ % % * ",
"6 = 8 @.@.* @.@.@.+.R R R R R R R R R R R R R R R R R R Y R R R R R R R R R R R b z z z z z z z z j N @.@.@.@.@.@.[ $ ' ' % % * ",
"8 6 = @.@.* @.@.@.#./ R R R R R R R R R R R R R R R R R R K R R R R R R R R R H x z z z z z z z z z *.@.@.@.@.@.@.{ % { [ % % 6 ",
"8 6 * @.@.= @.@.@.@.2.R R R R R R R R R R R R R R R R R R Y Z I R R R R R R R R T m z z z z z z z m @.@.@.@.@.%.@.{ & [ [ % % * ",
"= = 6 @.@.= @.@.@.@.$.Y R R R R R R R R R R R R R R R R R R R P Z I I R R R R R R R T F D M M D U _ @.@.@.@.@.@.@...& ....% % * ",
"#   $ @.@.6 @.@.@.%.@.:.R R R R R R R R R R R R R R R R R R R R R I I I Z I I T R R R R R R R R R ~ @.@.@.@.@.@.@.@.& #.#.% &   ",
"o o o 0.0.6 @.@.@.@.@.+.K R R R R R R R R R R R R R R R R R R R R R R R R R R R R R R R R R R R _ 3.@.@.@.@.@.@.@.@.* @.@.X X o ",
"1 < 1 w.w.8 @.@.@.@.@.%.;.J Y R R R R R R R R Y R R R R R R R R R R R R R R R R R R R R R R R R R 2.@.@.@.@.@.@.@.@.* @.@.X o o ",
"@ r w -.0.7 @.@.@.@.@.@.$.S Z I R R R R R R R K Y R R R R R R R R R R R R R R R R R R R R R R R R 6.@.@.@.%.@.%.@.0.6 0.-.% % o ",
"1 w 8 @.@.7 @.%.@.@.%.@.@.5.Z Z K I R R R I Z Z R R R R R R R R R R R R R R R R R R R R R R R R ! @.@.@.@.@.@.@.@.-.6 0.0.&   o ",
"< w 8 @.@.6 @.@.@.@.@.@.@.@.Q Z Z Z Z Z Z Z Z Z R R R R R R R R R R R R R R R R R R R R R R R Y >.@.@.@.@.@.@.@.@.w.7 w.w.% # o ",
"< w 6 @.@.6 @.@.@.%.@.@.@.@.@.B Z Z Z Z Z Z Z I R R R R R R R R R R R R R R R R R R R R R R R J $.@.@.@.@.%.@.@.@.0.7 0.0.% # o ",
"@ w 8 @.@.= @.@.@.@.@.@.@.@.@.@.=.Z Z Z Z Z K R R R R R R R R R R R R R R R R R R R R R R R Z <.%.@.@.@.@.@.@.@.@.0.6 0.0.% # o ",
"1 w 7 ....* @.@.@.@.@.%.0.q.9.0.9.} J Z Z Z Z I R R R R R R R R R R R R R R R R R R R R I Z ,.q.q.q.0.9.@.@.@.@.@.@.* @.@.% # o ",
"@ q 8 ....* @.@.@.@.0.q.q.q.9.9.9.9.@.E J Z Z Z Z Z R R R R R R R R R R R R R R R R Y J W @.q.q.q.q.q.q.q.@.@.@.@.@.* @.@.& # o ",
"1 8 & @.@.* @.@.@.q.q.q.q.q.9.9.9.9.0.%.| E Z Z Z Z Z Z K I R R R R R R R R R Y I Z Z Q #.0.q.q.q.q.q.q.q.0.@.@.@.@.* @.@.  # o ",
"@ < o @.@.* @.@.@.q.q.q.q.q.0.0.0.9.0.0.0.9.O.} S Z Z Z J Z Z Z K K K K K Z J Z J Q X.0.0.0.q.q.q.q.q.q.q.q.@.@.@.[ * @.@.X   o ",
"1 @ 1 @.@.* 5 @.@.@.0.q.q.q.q.0.0.0.0.0.0.0.0.0.9.X.=.W J Z Z A Z Z Z Z Z S V } @.0.0.9.0.0.0.q.q.q.q.q.0.@.@.@.@.5 * @.@.X o o ",
"q w w @.@.5 * 5 [ @.@.%.0.q.q.q.0.0.0.0.9.9.0.0.9.0.0.0.%.#.o.o.X.o.X.@.%.0.0.9.0.0.0.0.0.0.0.q.q.q.0.%.@.@.@.[ 5 * 5 @.@.% % 0 ",
"= 8 % 5 @.@.5 * * * 5 [ @.@.%.0.0.0.0.0.9.9.0.0.%.0.0.0.0.0.9.9.0.0.0.9.0.0.0.0.0.0.0.0.0.%.0.0.%.@.@.@.[ ' * * * 5 [ @.5 % % * ",
"8 = = % 5 @.@.@.[ 5 * * * * 5 [ @.@.@.@.@.@.@.@.%.9.9.0.0.0.9.9.9.9.9.9.0.%.%.%.@.@.@.....@.%.%.{ 5 * * * * ' [ @.@.@.5 % % % $ ",
"8 = % % % 1 5 @.@.@.@.@.{ 5 * * * 5 [ @.@.@.@...........0.0.9.9.9.0.9.0...............@.@.{ 5 % * * 5 { @.@.@.@.@.5 1 % % % * 6 ",
"= 7 % % % % % 1 5 @.@.@.@.@.@.[ 5 * * * 5 { @.@.@.@.@...9.0.0.0.9.9.9.%...........@.[ 5 * * * u [ @.@.@.@.@.5 1 % % % % % & * 8 ",
"& 8 = 8 & % & % % $ % 1 5 @...@.@.@.{ 5 * * * 5 [ @.@.@.%.q.q.q.q.q.q.%.@.@.@.{ 5 * * * 5 { @.O.@.@.@.5 1 % % % % % % * % 8 * 8 ",
"& 8 = = & 7 7 & % % % % % % 1 5 o.O.@.@.@.[ 5 * * * * 5 [ @.0.q.q.0.%.[ 5 * * * * 5 { @.@.@.@.O.5 1 % % % % % % % * 8 * % & 8 $ ",
"= 7 % 8 & & 6 & = = 8 % % % % % &   1 5 @.@.@.@.@.[ 5 * * * 5 [ [ 5 * * * 5 { @.@.@.@.@.5 1   . o o % % % % 8 % 7 * 8 * 8 & 8 * ",
"$ $ $ $ $ $ $ $ $ $ $ $ $ $ $ $   $     o 1 5 @.@.@...@.[ 5 * * * * 5 [ @.@.@.@.5 1 $ $ $ # # X o o %   # $ $ $ $ $ $ $ $ $ $ $ ",
"o o o o o o o o o o o o o o o o o o o   X X X X o 1 5 @...@.@.@.@.@.@.@.@.5 1 X X X X X o X X X o o . . o o o o o X X X X X o o ",
"@ 1 @ 1 @ @ @ < < < < < 1 @ @ @ @ o o o o o o o X X X X X 1 5 @.@.5 1 o X X X X X o o o o o o o o @ ; < < 1 < < < < , @ , < < < ",
"1 1 1 1 1 1 1 1 1 1 1 1 1 1 1 1 1 1 1 < @ @ @ o o X X X X X X X X X X X X X X X X X o @ @ @ < < 1 1 1 1 1 1 1 1 1 1 1 1 1 1 1 1 "
};
